<svg width="1000" height="1000" viewBox="0 0 1000 1000" fill="none" xmlns="http://www.w3.org/2000/svg">
<path d="M230.001 424.18C230.001 424.18 176.171 264.9 363.931 284.34C551.691 303.78 461.981 233.28 532.931 189.53C603.881 145.78 812.931 281.89 725.471 413.17C638.011 544.45 865.241 424.36 912.641 621.78C941.891 743.61 869.321 833.28 809.451 884.11" stroke="#F7F7FF" stroke-width="5.47" stroke-miterlimit="10"/>
<path d="M827.762 731.9C813.652 650.19 763.692 577.07 682.522 550.9C661.757 544.243 640.525 539.145 619.002 535.65V535.76C617.88 542.543 615.222 548.981 611.232 554.58C602.772 566.17 591.112 575.69 577.612 580.65C563.832 585.75 546.762 586.41 533.972 578.39C526.272 573.57 518.802 565.08 517.452 555.92C515.912 545.6 521.172 535.83 528.572 529.01C465.852 529.52 406.852 539.84 359.572 551.59C361.21 558.451 363.48 565.146 366.352 571.59C370.37 580.573 376.05 588.716 383.092 595.59C391.874 586.889 399.564 577.151 405.992 566.59C412.14 568.602 417.561 572.378 421.581 577.447C425.601 582.516 428.042 588.654 428.602 595.1V595.43C431.082 618.84 408.542 636.43 389.602 647.25C367.722 659.83 343.332 669.25 319.372 677.08C309.492 680.32 296.652 683.08 286.222 679.7C285.098 679.342 284.002 678.904 282.942 678.39C272.542 673.29 265.582 662.6 260.152 652.83C244.682 625.08 234.622 594.83 227.802 563.78C180.472 569.83 175.052 537.78 172.242 529.92L131.752 643.11C129.628 651.246 129.398 659.761 131.08 668C132.762 676.239 136.311 683.983 141.453 690.636C146.596 697.289 153.196 702.674 160.745 706.378C168.294 710.082 176.593 712.005 185.002 712H352.622L428.762 907.3L450.342 962.73H573.602C563.602 962.73 558.132 960.29 554.162 956.31C550.061 952.208 547.753 946.649 547.742 940.85C547.742 928.85 557.592 919.01 573.602 919.01H574.732C573.522 919.01 572.362 918.9 571.152 918.79C571.901 918.709 572.646 918.585 573.382 918.42C572.589 918.401 571.798 918.341 571.012 918.24C578.233 917.387 584.924 914.024 589.917 908.737C594.909 903.451 597.884 896.578 598.322 889.32C598.342 888.943 598.342 888.566 598.322 888.19V887.61C598.149 880.169 595.305 873.038 590.309 867.521C585.313 862.003 578.499 858.468 571.112 857.56C571.952 857.49 572.752 857.42 573.562 857.42C572.832 857.24 572.022 857.13 571.262 857.02C572.462 856.91 573.672 856.83 574.832 856.83L665.012 857.31L681.602 857.38H701.292C702.202 857.38 703.122 857.38 703.992 857.49L733.242 857.64L752.782 857.75C760.948 857.818 768.755 861.118 774.495 866.928C780.235 872.737 783.441 880.583 783.412 888.75C783.401 893.368 782.331 897.921 780.282 902.06C788.665 900.987 796.44 897.11 802.342 891.06C816.412 876.69 822.472 855.18 826.662 836.06C834.072 802 833.632 766.11 827.762 731.9ZM599.922 734.2C582.932 760.35 554.002 758 554.002 758C554.002 758 551.602 760.34 546.002 750.38C540.402 740.42 524.452 733.61 524.452 733.61C523.182 743.61 520.552 758.81 494.452 739.11C468.352 719.41 476.222 690.69 478.452 675.52C480.682 660.35 489.572 655.32 489.572 655.32L500.072 649.78C500.072 649.78 469.702 641.97 468.242 641.68C466.782 641.39 439.732 618.74 467.182 612.76C494.632 606.78 537.422 630.56 545.692 635.26C553.962 639.96 602.292 680.84 602.292 680.84C602.292 680.84 617.002 708.09 599.922 734.2Z" fill="#23B5D3"/>
<path d="M227.758 563.8C227.758 563.8 250.648 561.02 259.218 544.68L251.748 586.59C251.748 586.59 342.808 555.59 359.508 551.59C359.508 551.59 364.888 586.28 386.308 595.59L408.408 567.49C408.408 567.49 436.118 574.49 428.538 612.25C420.958 650.01 316.118 681.57 298.338 680.84C280.558 680.11 261.418 669.17 241.818 610.38L227.758 563.8Z" fill="#353642"/>
<path d="M265.054 470.44C270.854 479.88 276.684 489.3 282.704 498.6C286.414 504.33 293.174 512.5 285.984 518.49C283.644 520.284 280.817 521.33 277.874 521.49C273.254 521.9 268.404 520.79 265.594 516.82L251.594 493.62C248.803 488.993 244.373 485.587 239.185 484.078C233.996 482.57 228.43 483.071 223.594 485.48V485.48" stroke="white" stroke-width="5.47" stroke-miterlimit="10"/>
<path d="M318.002 501C321.662 509.7 319.182 515.31 314.902 518.13C307.902 522.72 298.532 520.52 293.572 513.82L265.102 470.49" stroke="white" stroke-width="5.47" stroke-miterlimit="10"/>
<path d="M289.152 457.84C299.512 470.44 312.582 493.84 319.812 503.61C327.042 513.38 338.222 507.49 338.222 507.49C347.302 502.6 345.762 494.49 341.792 484.64C332.012 460.46 318.052 444.38 302.482 433.84C254.232 401.2 204.732 425.28 190.002 481.62L131.752 643.11C129.628 651.247 129.398 659.762 131.08 668.001C132.762 676.24 136.311 683.984 141.453 690.637C146.596 697.29 153.196 702.675 160.745 706.379C168.294 710.082 176.593 712.005 185.002 712H352.622L450.372 962.74" stroke="white" stroke-width="5.47" stroke-miterlimit="10"/>
<path d="M349.002 473.55C361.002 469.39 360.452 450.25 343.422 443.79C324.612 436.65 291.212 426.55 282.822 424.03C282.77 423.99 282.707 423.966 282.642 423.96C282.052 423.78 281.642 423.63 281.322 423.56L280.852 423.41" stroke="white" stroke-width="5.47" stroke-miterlimit="10"/>
<path d="M526.303 664.92C515.803 652.3 487.063 645.15 468.303 641.69C465.15 641.098 462.275 639.497 460.11 637.129C457.946 634.761 456.61 631.754 456.303 628.56C456.085 626.406 456.334 624.23 457.033 622.18C458.151 619.033 460.294 616.353 463.117 614.569C465.94 612.785 469.281 612 472.603 612.34C504.603 615.58 537.603 625.65 562.013 647.34C562.013 647.34 680.343 737.64 694.473 746.43C700.303 749.97 705.743 745.79 701.793 740.23L700.553 738.11C693.598 726.174 685.366 715.029 676.003 704.87" stroke="white" stroke-width="5.47" stroke-miterlimit="10"/>
<path d="M528.49 529C379.67 530.24 251.75 586.58 251.75 586.58L264.52 515" stroke="white" stroke-width="5.47" stroke-miterlimit="10"/>
<path d="M759.633 918.57C759.633 918.57 743.423 914.9 739.113 927.88C734.803 940.86 730.303 961.51 761.293 962.73C792.283 963.95 774.083 957.86 772.293 947.83C770.503 937.8 759.633 918.57 759.633 918.57Z" fill="#353642"/>
<path d="M511.999 681.39C511.999 681.39 494.509 668.13 478.759 681.57C478.096 682.154 477.517 682.827 477.039 683.57" stroke="white" stroke-width="5.47" stroke-miterlimit="10"/>
<g opacity="0.77">
<path opacity="0.77" d="M293.512 513.77C298.512 520.48 307.872 522.67 314.842 518.07C319.072 515.27 321.552 509.69 317.982 501.07C318.632 502.02 319.222 502.86 319.802 503.63C327.022 513.44 338.212 507.53 338.212 507.53C347.292 502.64 345.762 494.53 341.792 484.67C337.907 474.904 332.81 465.665 326.622 457.17C330.672 453.38 335.482 449.55 340.552 451.23C346.022 453.05 347.552 459.91 348.172 465.63C348.462 468.29 348.752 470.92 349.042 473.58L353.422 512.74C354.882 525.74 356.342 538.93 359.512 551.62C361.15 558.481 363.42 565.176 366.292 571.62C370.31 580.603 375.99 588.746 383.032 595.62C391.814 586.919 399.504 577.181 405.932 566.62C412.08 568.632 417.501 572.408 421.521 577.477C425.541 582.546 427.982 588.685 428.542 595.13V595.46C431.022 618.87 408.482 636.46 389.542 647.28C367.662 659.86 343.272 669.28 319.312 677.11C309.432 680.35 296.592 683.11 286.162 679.73C285.038 679.372 283.942 678.934 282.882 678.42C272.482 673.32 265.522 662.63 260.092 652.86C234.092 606.11 223.292 552.43 217.602 499.27C228.982 497.7 240.322 495.95 251.522 493.54C251.522 493.54 251.522 493.62 251.592 493.65L264.502 515.06L265.562 516.84C268.362 520.84 273.212 521.91 277.842 521.51C280.785 521.364 283.613 520.317 285.942 518.51C293.122 512.51 286.382 504.37 282.662 498.64" fill="white"/>
<path opacity="0.77" d="M293.512 513.77C298.512 520.48 307.872 522.67 314.842 518.07C319.072 515.27 321.552 509.69 317.982 501.07C318.632 502.02 319.222 502.86 319.802 503.63C327.022 513.44 338.212 507.53 338.212 507.53C347.292 502.64 345.762 494.53 341.792 484.67C337.907 474.904 332.81 465.665 326.622 457.17C330.672 453.38 335.482 449.55 340.552 451.23C346.022 453.05 347.552 459.91 348.172 465.63C348.462 468.29 348.752 470.92 349.042 473.58L353.422 512.74C354.882 525.74 356.342 538.93 359.512 551.62C361.15 558.481 363.42 565.176 366.292 571.62C370.31 580.603 375.99 588.746 383.032 595.62C391.814 586.919 399.504 577.181 405.932 566.62C412.08 568.632 417.501 572.408 421.521 577.477C425.541 582.546 427.982 588.685 428.542 595.13V595.46C431.022 618.87 408.482 636.46 389.542 647.28C367.662 659.86 343.272 669.28 319.312 677.11C309.432 680.35 296.592 683.11 286.162 679.73C285.038 679.372 283.942 678.934 282.882 678.42C272.482 673.32 265.522 662.63 260.092 652.86C234.092 606.11 223.292 552.43 217.602 499.27C228.982 497.7 240.322 495.95 251.522 493.54C251.522 493.54 251.522 493.62 251.592 493.65L264.502 515.06L265.562 516.84C268.362 520.84 273.212 521.91 277.842 521.51C280.785 521.364 283.613 520.317 285.942 518.51C293.122 512.51 286.382 504.37 282.662 498.64" fill="#EA526F"/>
<path opacity="0.77" d="M296.578 516.94C301.008 522.94 308.578 522.18 314.838 518.07C318.618 515.57 321.718 516.3 318.528 508.59C319.118 509.43 319.198 506.59 319.718 507.22C326.168 515.98 319.798 503.6 319.798 503.6C328.798 514.97 348.388 504.26 344.798 495.47C340.998 486 336.998 472 331.928 465C335.928 461.22 335.158 461.78 340.248 464.79C341.616 465.669 342.76 466.853 343.592 468.25C344.423 469.647 344.918 471.218 345.038 472.84C345.448 476.65 345.858 480.3 346.268 484.02L350.168 519.02C351.478 530.65 352.778 542.4 355.608 553.72C357.072 559.841 359.1 565.813 361.668 571.56C365.248 579.47 376.748 592.64 383.028 598.67C390.838 590.92 400.198 576.67 405.928 567.2C416.928 570.58 416.448 581.1 417.228 592.59V592.89C419.448 613.78 399.328 629.47 382.468 639.14C362.928 650.37 341.158 658.77 319.768 665.77C310.948 668.67 299.488 671.17 290.178 668.11C289.174 667.793 288.195 667.402 287.248 666.94C277.968 662.38 271.748 652.85 266.898 644.12C245.668 605.99 235.818 562.7 230.398 519.3C230.001 516.052 230.879 512.778 232.849 510.166C234.82 507.554 237.727 505.809 240.958 505.3C247.048 504.3 253.118 503.3 259.148 501.96L259.318 502.04L270.838 521.15C273.348 524.7 273.758 521.92 277.888 521.56C280.498 521.33 285.558 520.82 287.578 519.13C293.988 513.79 290.368 511.58 287.048 506.47" fill="#EA526F"/>
</g>
<path d="M509.89 700.69C509.89 700.69 476.68 689.77 476.18 708.13" stroke="white" stroke-width="5.47" stroke-miterlimit="10"/>
<path opacity="0.54" d="M212.619 887.72L147.489 720.86C146.682 717.631 146.622 714.261 147.313 711.005C148.004 707.749 149.427 704.694 151.476 702.071C153.524 699.448 156.144 697.326 159.135 695.867C162.127 694.408 165.411 693.65 168.739 693.65H427.439C433.248 693.649 438.889 695.604 443.451 699.199C448.014 702.795 451.233 707.822 452.589 713.47L523.889 880.29C524.66 883.508 524.691 886.859 523.981 890.091C523.271 893.323 521.837 896.352 519.788 898.95C517.74 901.549 515.128 903.649 512.151 905.094C509.174 906.538 505.908 907.289 502.599 907.29H237.709C231.944 907.294 226.343 905.369 221.797 901.823C217.25 898.277 214.02 893.313 212.619 887.72Z" fill="white"/>
<path d="M520.698 728.84C520.698 728.84 526.088 733.78 524.038 740.84C522.518 746.07 517.318 749.37 512.168 747.58C495.768 741.91 480.998 732.28 477.398 715.91C475.697 707.622 475.329 699.115 476.308 690.71C477.098 682.92 478.248 674.51 480.868 667.1C484.868 655.72 497.118 647.79 509.008 653.27" stroke="white" stroke-width="5.47" stroke-miterlimit="10"/>
<path d="M212.619 887.72L147.489 720.86C146.682 717.631 146.622 714.261 147.313 711.005C148.004 707.749 149.427 704.694 151.476 702.071C153.524 699.448 156.144 697.326 159.135 695.867C162.127 694.408 165.411 693.65 168.739 693.65H427.439C433.248 693.649 438.889 695.604 443.451 699.199C448.014 702.795 451.233 707.822 452.589 713.47L523.889 880.29C524.66 883.508 524.691 886.859 523.981 890.091C523.271 893.323 521.837 896.352 519.788 898.95C517.74 901.549 515.128 903.649 512.151 905.094C509.174 906.538 505.908 907.289 502.599 907.29H237.709C231.944 907.294 226.343 905.369 221.797 901.823C217.25 898.277 214.02 893.313 212.619 887.72Z" fill="#EA526F"/>
<path d="M212.619 887.72L147.489 720.86C146.682 717.631 146.622 714.261 147.313 711.005C148.004 707.749 149.427 704.694 151.476 702.071C153.524 699.448 156.144 697.326 159.135 695.867C162.127 694.408 165.411 693.65 168.739 693.65H427.439C433.248 693.649 438.889 695.604 443.451 699.199C448.014 702.795 451.233 707.822 452.589 713.47L523.889 880.29C524.66 883.508 524.691 886.859 523.981 890.091C523.271 893.323 521.837 896.352 519.788 898.95C517.74 901.549 515.128 903.649 512.151 905.094C509.174 906.538 505.908 907.289 502.599 907.29H237.709C231.944 907.294 226.343 905.369 221.797 901.823C217.25 898.277 214.02 893.313 212.619 887.72Z" stroke="white" stroke-width="5.47" stroke-linecap="square" stroke-linejoin="round"/>
<path d="M222.151 881L162.061 727C161.319 724.021 161.264 720.912 161.902 717.909C162.541 714.906 163.855 712.087 165.745 709.668C167.635 707.249 170.052 705.292 172.812 703.946C175.571 702.6 178.601 701.9 181.671 701.9H420.331C425.69 701.898 430.893 703.701 435.102 707.017C439.311 710.333 442.28 714.97 443.531 720.18L509.321 874.09C510.032 877.06 510.06 880.152 509.403 883.134C508.747 886.116 507.424 888.91 505.533 891.307C503.642 893.704 501.232 895.642 498.485 896.974C495.738 898.307 492.725 898.999 489.671 899H245.291C239.981 899.005 234.821 897.236 230.629 893.976C226.438 890.715 223.454 886.149 222.151 881Z" fill="#EA526F"/>
<path d="M732.922 856.84L778.682 962.73" stroke="white" stroke-width="5.47" stroke-miterlimit="10"/>
<path d="M950 962.73H50" stroke="white" stroke-width="5.47" stroke-miterlimit="10"/>
<path d="M524.372 484.81C516.952 492.14 505.872 492.13 499.562 485.35" stroke="white" stroke-width="5.47" stroke-miterlimit="10"/>
<path d="M326.617 457.14C330.667 453.35 335.477 449.52 340.547 451.2C346.017 453.02 347.547 459.88 348.167 465.6C349.921 481.32 351.671 497.024 353.417 512.71C355.637 532.71 357.977 553.19 366.287 571.57C370.306 580.553 375.985 588.696 383.027 595.57" stroke="white" stroke-width="5.47" stroke-miterlimit="10"/>
<path d="M428.541 595.45V595.12C427.982 588.675 425.541 582.536 421.521 577.467C417.501 572.399 412.08 568.623 405.931 566.61C399.504 577.171 391.814 586.91 383.031 595.61C360.004 618.507 330.424 633.671 298.391 639C299.931 645.13 303.101 650.71 305.291 656.61C307.481 662.51 308.571 669.34 305.911 675.03C302.551 682.29 292.911 681.34 286.211 679.73C286.141 679.73 286.101 679.73 286.031 679.73" stroke="white" stroke-width="5.47" stroke-miterlimit="10"/>
<path d="M251.537 493.53C240.337 495.94 228.997 497.69 217.617 499.26C223.307 552.42 234.067 606.1 260.107 652.85C265.537 662.62 272.497 673.31 282.897 678.41C283.958 678.925 285.054 679.363 286.177 679.72C296.607 683.15 309.447 680.34 319.327 677.1C343.327 669.26 367.677 659.85 389.557 647.27C408.447 636.44 430.987 618.86 428.557 595.45C428.322 592.872 427.795 590.329 426.987 587.87" stroke="white" stroke-width="5.47" stroke-miterlimit="10"/>
<path d="M438.82 387.49C440.498 394.488 444.329 400.782 449.774 405.486C455.219 410.191 462.003 413.067 469.17 413.71C469.765 410.823 471.056 408.125 472.93 405.85C480.93 396.42 484.34 414.11 509.93 401.41C545.39 383.77 558.85 393.89 558.85 393.89C560.03 394.77 559.85 402.89 560.05 404.37C561.05 412.8 561.95 421.19 562.94 429.61C563.54 434.75 564.13 439.85 564.69 444.95C565.173 444.083 565.707 443.244 566.29 442.44C569.52 431.01 575.29 417.51 587.73 423.32C590.249 424.549 592.442 426.354 594.13 428.59C602.38 439.43 596.13 449.9 587.5 457.65C585.337 460.055 582.92 462.217 580.29 464.1C581.71 467.04 587.51 478.71 587.51 478.75C588.11 479.93 608.38 456.99 609.89 454.49C612.146 448.366 613.357 441.906 613.47 435.38C613.8 408.55 602.88 377.32 581.15 361.93C575.76 358.12 577.48 354.45 577.15 349.27C577.127 348.99 577.02 348.724 576.843 348.506C576.665 348.288 576.426 348.129 576.156 348.05C575.886 347.971 575.599 347.976 575.332 348.063C575.065 348.151 574.831 348.317 574.66 348.54C567.85 356.38 550.99 355.6 550.99 355.6C492.47 340.94 472.8 366.96 460.99 371.6C456.172 373.426 450.867 373.514 445.99 371.85C445.703 373.465 444.98 374.97 443.9 376.204C442.82 377.438 441.423 378.353 439.86 378.85L440.16 381.56C440.415 383.633 439.941 385.729 438.82 387.49Z" fill="#EA526F"/>
<path d="M469.207 413.75C462.04 413.106 455.256 410.23 449.811 405.526C444.366 400.822 440.535 394.527 438.857 387.53V387.53C438.201 384.846 437.786 382.108 437.617 379.35L438.077 379.3C438.706 379.253 439.325 379.118 439.917 378.9C441.48 378.402 442.877 377.487 443.957 376.253C445.037 375.02 445.76 373.514 446.047 371.9C446.23 371.005 446.267 370.086 446.157 369.18L444.657 355.94C444.657 355.94 455.237 363.81 466.977 359.21C478.717 354.61 498.427 328.59 556.977 343.21C556.977 343.21 570.197 343.99 576.977 336.15C577.148 335.926 577.382 335.76 577.649 335.673C577.916 335.585 578.203 335.581 578.473 335.66C578.743 335.739 578.982 335.898 579.159 336.115C579.337 336.333 579.444 336.6 579.467 336.88C579.817 342.07 581.737 345.74 587.137 349.54C608.867 364.94 619.787 396.16 619.447 422.99C619.347 434.12 615.647 445.11 609.937 454.54C608.427 457.04 588.157 479.98 587.557 478.8C587.557 478.8 581.757 467.09 580.337 464.15L579.997 463.5L580.647 463.07C583.061 461.431 585.366 459.637 587.547 457.7C596.167 449.95 602.427 439.48 594.177 428.64C592.489 426.404 590.296 424.598 587.777 423.37C575.297 417.56 569.567 431.06 566.337 442.49C565.71 444.674 565.324 446.921 565.187 449.19C565.037 447.79 564.887 446.44 564.737 445.04C564.177 439.94 563.587 434.84 562.987 429.7C561.987 421.28 561.047 412.89 560.097 404.46C559.947 403.02 560.097 394.86 558.897 393.98C558.897 393.98 545.427 383.86 509.977 401.5C484.387 414.2 480.977 396.5 472.977 405.94C471.103 408.215 469.812 410.913 469.217 413.8C469.034 414.727 468.917 415.666 468.867 416.61C468.848 416.732 468.848 416.857 468.867 416.98C468.747 419.05 468.707 421.11 468.657 423.13C468.467 442.62 470.607 462.98 478.257 481.08C487.557 503.02 512.167 524.66 537.757 514.43C545.757 511.22 552.927 506.05 559.487 500.56" stroke="white" stroke-width="5.47" stroke-miterlimit="10"/>
<path d="M486.723 461.285C489.269 460.433 490.497 457.246 489.466 454.167C488.436 451.087 485.537 449.281 482.992 450.133C480.446 450.984 479.218 454.171 480.249 457.251C481.279 460.331 484.178 462.137 486.723 461.285Z" fill="white"/>
<path d="M524.801 460.068C527.347 459.217 528.575 456.03 527.544 452.95C526.514 449.87 523.615 448.064 521.07 448.916C518.524 449.768 517.296 452.955 518.327 456.034C519.357 459.114 522.256 460.92 524.801 460.068Z" fill="white"/>
<path d="M510.241 466.66C510.241 466.66 497.571 473.85 496.801 466.39C496.561 464.09 493.461 441.56 493.461 441.56C493.461 441.56 483.221 430.71 467.531 438.73" stroke="white" stroke-width="5.47" stroke-miterlimit="10"/>
<path d="M507.391 435.25C507.391 435.25 527.851 425.03 541.391 439.76" stroke="white" stroke-width="5.47" stroke-miterlimit="10"/>
<path d="M526.154 516.94L528.504 529C521.094 535.83 515.854 545.62 517.384 555.93C518.744 565.07 526.224 573.58 533.894 578.37C546.714 586.37 563.764 585.74 577.564 580.65C591.054 575.65 602.724 566.16 611.184 554.58C615.167 548.982 617.822 542.549 618.944 535.77V535.65" stroke="white" stroke-width="5.47" stroke-miterlimit="10"/>
<path d="M528.5 529L533.08 550.78" stroke="white" stroke-width="5.47" stroke-miterlimit="10"/>
<path d="M593.272 473.55L600.192 519.5C600.874 523.998 603.148 528.102 606.6 531.065C610.051 534.029 614.452 535.656 619.002 535.65V535.65C640.538 539.14 661.784 544.234 682.562 550.89C763.732 577.07 813.692 650.19 827.802 731.89C833.672 766.1 834.112 801.98 826.742 836C822.552 855.15 816.492 876.66 802.422 891C784.152 909.7 756.112 902 734.522 893.55C667.492 867.48 611.742 821.1 563.602 768C537.862 739.6 504.602 716.84 504.602 716.84" stroke="white" stroke-width="5.47" stroke-miterlimit="10"/>
<path d="M244.302 846.53C236.782 846.46 230.232 840.39 228.542 831.94C225.202 815.32 224.322 789.62 248.692 784.01C279.142 777.01 302.562 810.17 314.042 831.13C317.902 838.13 313.532 847.13 306.342 847.13L244.302 846.53Z" fill="#D7E8F0"/>
<path d="M254.353 769.9C260.818 765.598 260.917 754.384 254.574 744.853C248.232 735.321 237.85 731.081 231.385 735.383C224.92 739.685 224.821 750.899 231.164 760.43C237.506 769.962 247.888 774.202 254.353 769.9Z" fill="#D7E8F0"/>
<path d="M754.768 919.12C754.298 919.19 753.768 919.26 753.307 919.37H753.128L681.997 919L575.268 918.45C574.858 918.45 574.457 918.45 574.057 918.45C573.265 918.431 572.474 918.371 571.688 918.27C578.919 917.43 585.622 914.066 590.617 908.771C595.613 903.476 598.58 896.588 598.997 889.32C599.018 888.944 599.018 888.566 598.997 888.19V887.61C598.968 880.499 596.491 873.615 591.981 868.116C587.471 862.618 581.205 858.84 574.237 857.42C573.507 857.24 572.707 857.13 571.938 857.02C573.148 856.91 574.348 856.83 575.518 856.83L665.688 857.31L682.287 857.38L704.677 857.49C712.344 858.19 719.474 861.724 724.672 867.401C729.871 873.079 732.765 880.492 732.787 888.19C732.788 889.643 732.678 891.094 732.458 892.53C731.392 899.859 727.731 906.561 722.141 911.419C716.551 916.277 709.403 918.967 701.997 919H756.177C753.057 919 753.928 919 754.768 919.12Z" fill="white"/>
<path d="M610.493 956.31C612.525 958.353 614.942 959.973 617.605 961.075C620.267 962.177 623.122 962.739 626.003 962.73H573.623C563.623 962.73 558.163 960.29 554.183 956.31C550.093 952.202 547.79 946.646 547.773 940.85C547.773 928.85 557.613 919.01 573.623 919.01H626.003C621.679 919.003 617.45 920.28 613.852 922.68C610.254 925.079 607.45 928.493 605.794 932.487C604.138 936.482 603.706 940.879 604.551 945.12C605.397 949.361 607.482 953.255 610.543 956.31H610.493Z" fill="#D7E8F0"/>
<path d="M783.479 888.74C783.466 893.359 782.392 897.913 780.339 902.05C778.874 905.178 776.862 908.019 774.399 910.44C770.339 914.464 765.239 917.279 759.669 918.57C757.374 919.1 755.025 919.369 752.669 919.37C753.149 919.26 753.669 919.19 754.129 919.12C753.289 919.04 752.419 919.01 755.549 919.01H701.359C708.77 918.982 715.924 916.292 721.518 911.432C727.113 906.572 730.775 899.864 731.839 892.53C732.06 891.094 732.17 889.643 732.169 888.19C732.146 880.491 729.251 873.076 724.05 867.399C718.85 861.721 711.718 858.187 704.049 857.49L733.299 857.64L752.839 857.75C761.005 857.819 768.812 861.117 774.553 866.924C780.294 872.731 783.503 880.574 783.479 888.74Z" fill="#FFCA08"/>
<path d="M783.477 888.73C783.416 896.901 780.119 904.714 774.309 910.459C768.498 916.204 760.648 919.412 752.477 919.38L574.557 918.46C573.367 918.46 572.177 918.37 570.977 918.25C578.476 917.4 585.404 913.829 590.446 908.212C595.489 902.596 598.296 895.325 598.335 887.777C598.375 880.23 595.644 872.93 590.66 867.261C585.677 861.592 578.787 857.948 571.297 857.02C572.486 856.895 573.681 856.835 574.877 856.84L752.797 857.76C760.967 857.816 768.782 861.106 774.532 866.91C780.282 872.714 783.498 880.56 783.477 888.73Z" stroke="white" stroke-width="5.47" stroke-linecap="square" stroke-linejoin="round"/>
<path d="M732.146 888.18C732.13 896.349 728.878 904.179 723.102 909.955C717.325 915.732 709.495 918.984 701.326 919H574.736C573.54 918.993 572.345 918.926 571.156 918.8C578.651 917.91 585.559 914.302 590.571 908.66C595.583 903.017 598.352 895.732 598.352 888.185C598.352 880.638 595.583 873.353 590.571 867.71C585.559 862.068 578.651 858.46 571.156 857.57C572.346 857.46 573.546 857.38 574.736 857.38H701.326C709.491 857.398 717.317 860.649 723.092 866.42C728.867 872.192 732.123 880.015 732.146 888.18V888.18Z" stroke="white" stroke-width="5.47" stroke-linecap="square" stroke-linejoin="round"/>
<path d="M547.773 940.86C547.773 943.728 548.338 946.568 549.436 949.218C550.534 951.867 552.144 954.274 554.173 956.3C558.173 960.3 563.603 962.73 573.613 962.73H755.543C752.413 962.73 753.263 962.67 754.113 962.59C748.79 961.964 743.882 959.405 740.32 955.399C736.759 951.394 734.791 946.22 734.791 940.86C734.791 935.5 736.759 930.327 740.32 926.321C743.882 922.316 748.79 919.757 754.113 919.13C753.263 919.05 752.413 918.99 755.543 918.99H573.613C557.593 919 547.773 928.84 547.773 940.86Z" stroke="white" stroke-width="5.47" stroke-linecap="square" stroke-linejoin="round"/>
<path d="M604.07 940.86C604.084 946.656 606.392 952.211 610.49 956.31C614.589 960.409 620.144 962.717 625.94 962.73H751.57C752.41 962.73 753.26 962.67 754.11 962.59C748.787 961.964 743.879 959.405 740.317 955.399C736.755 951.394 734.788 946.22 734.788 940.86C734.788 935.5 736.755 930.327 740.317 926.321C743.879 922.316 748.787 919.757 754.11 919.13C753.26 919.05 752.41 918.99 751.57 918.99H625.94C620.145 919.006 614.591 921.315 610.493 925.413C606.395 929.511 604.086 935.065 604.07 940.86V940.86Z" stroke="white" stroke-width="5.47" stroke-linecap="square" stroke-linejoin="round"/>
<path d="M400.419 774H344.299C341.732 773.996 339.221 773.244 337.073 771.838C334.924 770.432 333.231 768.432 332.199 766.08C331.801 765.205 331.631 764.243 331.704 763.284C331.778 762.325 332.093 761.401 332.619 760.596C333.146 759.792 333.868 759.134 334.718 758.683C335.568 758.233 336.518 758.005 337.479 758.02H397.139C394.329 762.75 395.759 769.32 400.419 774Z" fill="#D7E8F0"/>
<path d="M436.709 768.22C436.706 769.75 436.098 771.216 435.016 772.297C433.935 773.379 432.468 773.988 430.939 773.99H400.419C395.759 769.32 394.329 762.75 397.139 757.99H424.089C426.654 757.991 429.163 758.736 431.312 760.134C433.462 761.533 435.16 763.526 436.199 765.87C436.522 766.612 436.695 767.411 436.709 768.22Z" fill="#23B5D3"/>
<path d="M422.669 774C422.511 774.305 422.327 774.596 422.119 774.87C418.119 780.34 409.429 780.87 402.679 775.93C401.881 775.341 401.126 774.696 400.419 774C395.759 769.33 394.329 762.76 397.139 758C397.297 757.695 397.481 757.404 397.689 757.13C401.689 751.62 410.339 751.13 417.089 756.03C417.901 756.638 418.667 757.307 419.379 758.03C423.999 762.68 425.439 769.21 422.669 774Z" fill="white"/>
<path d="M450.823 803.45C450.812 804.981 450.197 806.446 449.11 807.525C448.023 808.604 446.554 809.21 445.023 809.21H386.133C388.973 804.43 387.553 797.91 382.883 793.21H438.203C440.771 793.211 443.284 793.959 445.435 795.363C447.585 796.768 449.28 798.768 450.313 801.12C450.642 801.853 450.816 802.646 450.823 803.45Z" fill="#23B5D3"/>
<path d="M386.127 809.21H358.417C355.852 809.212 353.341 808.468 351.191 807.069C349.041 805.67 347.344 803.676 346.307 801.33C345.98 800.596 345.806 799.804 345.797 799C345.796 798.243 345.944 797.494 346.233 796.794C346.522 796.095 346.946 795.46 347.481 794.924C348.016 794.389 348.652 793.965 349.351 793.676C350.051 793.387 350.8 793.239 351.557 793.24H382.877C387.547 797.91 388.997 804.43 386.127 809.21Z" fill="#D7E8F0"/>
<path d="M386.128 809.21C385.997 809.524 385.826 809.82 385.618 810.09C381.618 815.59 372.958 816.09 366.218 811.18C365.402 810.572 364.633 809.903 363.918 809.18C359.288 804.51 357.868 797.99 360.638 793.18C360.798 792.872 360.982 792.578 361.188 792.3C365.188 786.83 373.878 786.3 380.618 791.25C381.42 791.833 382.176 792.478 382.878 793.18C387.548 797.91 388.998 804.43 386.128 809.21Z" fill="white"/>
<path d="M405.754 844.18H370.494C367.93 844.177 365.421 843.431 363.272 842.033C361.123 840.635 359.425 838.643 358.384 836.3C357.987 835.422 357.818 834.458 357.892 833.498C357.966 832.537 358.282 831.611 358.809 830.804C359.337 829.998 360.059 829.337 360.909 828.884C361.759 828.43 362.71 828.199 363.674 828.21H402.474C399.694 833 401.124 839.51 405.754 844.18Z" fill="#23B5D3"/>
<path d="M462.89 838.46C462.882 839.981 462.272 841.438 461.192 842.51C460.112 843.582 458.652 844.182 457.13 844.18H405.75C401.12 839.51 399.69 832.99 402.47 828.18H450.27C452.839 828.18 455.351 828.929 457.502 830.333C459.652 831.738 461.347 833.738 462.38 836.09C462.71 836.837 462.883 837.643 462.89 838.46Z" fill="#D7E8F0"/>
<path d="M427.998 844.18C427.838 844.487 427.654 844.781 427.448 845.06C423.448 850.56 414.798 851.06 408.048 846.15C407.238 845.539 406.472 844.871 405.758 844.15C401.128 839.48 399.698 832.96 402.478 828.15C402.631 827.841 402.811 827.546 403.018 827.27C407.018 821.8 415.708 821.33 422.458 826.22C423.261 826.803 424.016 827.448 424.718 828.15C429.378 832.88 430.798 839.44 427.998 844.18Z" fill="white"/>
<path d="M161.609 525.37L162.489 525.62L162.159 526.9C161.95 526.4 161.767 525.889 161.609 525.37Z" fill="#353642"/>
<path d="M318.105 605.374C331.268 601.51 338.185 585.588 333.554 569.812C328.923 554.037 314.498 544.38 301.334 548.244C288.171 552.109 281.254 568.03 285.885 583.806C290.516 599.582 304.942 609.238 318.105 605.374Z" fill="#D7E8F0"/>
</svg>
