<svg width="1000" height="1000" viewBox="0 0 1000 1000" fill="none" xmlns="http://www.w3.org/2000/svg">
<path d="M230 424.18C230 424.18 176.17 264.9 363.93 284.34C551.69 303.78 461.98 233.28 532.93 189.53C603.88 145.78 812.93 281.89 725.47 413.17C638.01 544.45 865.24 424.36 912.64 621.78C941.89 743.61 869.32 833.28 809.45 884.11" stroke="#F7F7FF" stroke-width="5.47" stroke-miterlimit="10"/>
<path d="M827.76 731.9C813.65 650.19 763.69 577.07 682.52 550.9C661.756 544.243 640.523 539.146 619 535.65V535.76C617.878 542.544 615.22 548.981 611.23 554.58C602.77 566.17 591.11 575.69 577.61 580.65C563.83 585.75 546.76 586.41 533.97 578.39C526.27 573.57 518.8 565.08 517.45 555.92C515.91 545.6 521.17 535.83 528.57 529.01C465.85 529.52 406.85 539.84 359.57 551.59C361.209 558.451 363.478 565.147 366.35 571.59C370.369 580.573 376.048 588.716 383.09 595.59C391.873 586.889 399.563 577.151 405.99 566.59C412.138 568.603 417.56 572.378 421.58 577.447C425.599 582.516 428.041 588.655 428.6 595.1V595.43C431.08 618.84 408.54 636.43 389.6 647.25C367.72 659.83 343.33 669.25 319.37 677.08C309.49 680.32 296.65 683.08 286.22 679.7C285.097 679.342 284.001 678.905 282.94 678.39C272.54 673.29 265.58 662.6 260.15 652.83C244.68 625.08 234.62 594.83 227.8 563.78C180.47 569.83 175.05 537.78 172.24 529.92L131.75 643.11C129.626 651.246 129.397 659.761 131.078 668C132.76 676.239 136.309 683.983 141.452 690.636C146.594 697.289 153.194 702.675 160.743 706.378C168.293 710.082 176.591 712.005 185 712H352.62L428.76 907.3L450.34 962.73H573.6C563.6 962.73 558.13 960.29 554.16 956.31C550.06 952.208 547.752 946.649 547.74 940.85C547.74 928.85 557.59 919.01 573.6 919.01H574.73C573.52 919.01 572.36 918.9 571.15 918.79C571.9 918.709 572.644 918.585 573.38 918.42C572.587 918.402 571.796 918.342 571.01 918.24C578.231 917.388 584.923 914.024 589.915 908.738C594.907 903.451 597.882 896.578 598.32 889.32C598.34 888.944 598.34 888.566 598.32 888.19V887.61C598.148 880.169 595.303 873.038 590.308 867.521C585.312 862.004 578.497 858.468 571.11 857.56C571.95 857.49 572.75 857.42 573.56 857.42C572.83 857.24 572.02 857.13 571.26 857.02C572.46 856.91 573.67 856.83 574.83 856.83L665.01 857.31L681.6 857.38H701.29C702.2 857.38 703.12 857.38 703.99 857.49L733.24 857.64L752.78 857.75C760.947 857.819 768.753 861.119 774.493 866.928C780.233 872.737 783.439 880.583 783.41 888.75C783.4 893.368 782.329 897.922 780.28 902.06C788.664 900.987 796.438 897.11 802.34 891.06C816.41 876.69 822.47 855.18 826.66 836.06C834.07 802 833.63 766.11 827.76 731.9ZM599.92 734.2C582.93 760.35 554 758 554 758C554 758 551.6 760.34 546 750.38C540.4 740.42 524.45 733.61 524.45 733.61C523.18 743.61 520.55 758.81 494.45 739.11C468.35 719.41 476.22 690.69 478.45 675.52C480.68 660.35 489.57 655.32 489.57 655.32L500.07 649.78C500.07 649.78 469.7 641.97 468.24 641.68C466.78 641.39 439.73 618.74 467.18 612.76C494.63 606.78 537.42 630.56 545.69 635.26C553.96 639.96 602.29 680.84 602.29 680.84C602.29 680.84 617 708.09 599.92 734.2V734.2Z" fill="#23B5D3"/>
<path d="M227.76 563.8C227.76 563.8 250.65 561.02 259.22 544.68L251.75 586.59C251.75 586.59 342.81 555.59 359.51 551.59C359.51 551.59 364.89 586.28 386.31 595.59L408.41 567.49C408.41 567.49 436.12 574.49 428.54 612.25C420.96 650.01 316.12 681.57 298.34 680.84C280.56 680.11 261.42 669.17 241.82 610.38L227.76 563.8Z" fill="#353642"/>
<path d="M265.05 470.44C270.85 479.88 276.68 489.3 282.7 498.6C286.41 504.33 293.17 512.5 285.98 518.49C283.64 520.284 280.814 521.329 277.87 521.49C273.25 521.9 268.4 520.79 265.59 516.82L251.59 493.62C248.8 488.993 244.369 485.586 239.181 484.078C233.992 482.57 228.426 483.07 223.59 485.48V485.48" stroke="white" stroke-width="5.47" stroke-miterlimit="10"/>
<path d="M318 501C321.66 509.7 319.18 515.31 314.9 518.13C307.9 522.72 298.53 520.52 293.57 513.82L265.1 470.49" stroke="white" stroke-width="5.47" stroke-miterlimit="10"/>
<path d="M289.15 457.84C299.51 470.44 312.58 493.84 319.81 503.61C327.04 513.38 338.22 507.49 338.22 507.49C347.3 502.6 345.76 494.49 341.79 484.64C332.01 460.46 318.05 444.38 302.48 433.84C254.23 401.2 204.73 425.28 190 481.62L131.75 643.11C129.626 651.246 129.397 659.761 131.078 668C132.76 676.239 136.309 683.983 141.452 690.636C146.594 697.289 153.194 702.675 160.743 706.378C168.293 710.082 176.591 712.005 185 712H352.62L450.37 962.74" stroke="white" stroke-width="5.47" stroke-miterlimit="10"/>
<path d="M349 473.55C361 469.39 360.45 450.25 343.42 443.79C324.61 436.65 291.21 426.55 282.82 424.03C282.768 423.99 282.705 423.965 282.64 423.96C282.05 423.78 281.64 423.63 281.32 423.56L280.85 423.41" stroke="white" stroke-width="5.47" stroke-miterlimit="10"/>
<path d="M526.3 664.92C515.8 652.3 487.06 645.15 468.3 641.69C465.147 641.098 462.272 639.497 460.107 637.129C457.943 634.761 456.607 631.753 456.3 628.56C456.082 626.406 456.331 624.23 457.03 622.18C458.148 619.033 460.291 616.353 463.114 614.568C465.937 612.784 469.278 611.999 472.6 612.34C504.6 615.58 537.6 625.65 562.01 647.34C562.01 647.34 680.34 737.64 694.47 746.43C700.3 749.97 705.74 745.79 701.79 740.23L700.55 738.11C693.595 726.174 685.363 715.028 676 704.87" stroke="white" stroke-width="5.47" stroke-miterlimit="10"/>
<path d="M528.49 529C379.67 530.24 251.75 586.58 251.75 586.58L264.52 515" stroke="white" stroke-width="5.47" stroke-miterlimit="10"/>
<path d="M759.63 918.57C759.63 918.57 743.42 914.9 739.11 927.88C734.8 940.86 730.3 961.51 761.29 962.73C792.28 963.95 774.08 957.86 772.29 947.83C770.5 937.8 759.63 918.57 759.63 918.57Z" fill="#353642"/>
<path d="M512 681.39C512 681.39 494.51 668.13 478.76 681.57C478.097 682.154 477.518 682.827 477.04 683.57" stroke="white" stroke-width="5.47" stroke-miterlimit="10"/>
<g opacity="0.77">
<path opacity="0.77" d="M293.51 513.77C298.51 520.48 307.87 522.67 314.84 518.07C319.07 515.27 321.55 509.69 317.98 501.07C318.63 502.02 319.22 502.86 319.8 503.63C327.02 513.44 338.21 507.53 338.21 507.53C347.29 502.64 345.76 494.53 341.79 484.67C337.905 474.904 332.808 465.665 326.62 457.17C330.67 453.38 335.48 449.55 340.55 451.23C346.02 453.05 347.55 459.91 348.17 465.63C348.46 468.29 348.75 470.92 349.04 473.58L353.42 512.74C354.88 525.74 356.34 538.93 359.51 551.62C361.149 558.481 363.418 565.177 366.29 571.62C370.309 580.603 375.988 588.746 383.03 595.62C391.813 586.919 399.503 577.181 405.93 566.62C412.078 568.633 417.5 572.408 421.52 577.477C425.539 582.546 427.981 588.685 428.54 595.13V595.46C431.02 618.87 408.48 636.46 389.54 647.28C367.66 659.86 343.27 669.28 319.31 677.11C309.43 680.35 296.59 683.11 286.16 679.73C285.037 679.372 283.941 678.935 282.88 678.42C272.48 673.32 265.52 662.63 260.09 652.86C234.09 606.11 223.29 552.43 217.6 499.27C228.98 497.7 240.32 495.95 251.52 493.54C251.52 493.54 251.52 493.62 251.59 493.65L264.5 515.06L265.56 516.84C268.36 520.84 273.21 521.91 277.84 521.51C280.784 521.364 283.612 520.317 285.94 518.51C293.12 512.51 286.38 504.37 282.66 498.64" fill="white"/>
<path opacity="0.77" d="M293.51 513.77C298.51 520.48 307.87 522.67 314.84 518.07C319.07 515.27 321.55 509.69 317.98 501.07C318.63 502.02 319.22 502.86 319.8 503.63C327.02 513.44 338.21 507.53 338.21 507.53C347.29 502.64 345.76 494.53 341.79 484.67C337.905 474.904 332.808 465.665 326.62 457.17C330.67 453.38 335.48 449.55 340.55 451.23C346.02 453.05 347.55 459.91 348.17 465.63C348.46 468.29 348.75 470.92 349.04 473.58L353.42 512.74C354.88 525.74 356.34 538.93 359.51 551.62C361.149 558.481 363.418 565.177 366.29 571.62C370.309 580.603 375.988 588.746 383.03 595.62C391.813 586.919 399.503 577.181 405.93 566.62C412.078 568.633 417.5 572.408 421.52 577.477C425.539 582.546 427.981 588.685 428.54 595.13V595.46C431.02 618.87 408.48 636.46 389.54 647.28C367.66 659.86 343.27 669.28 319.31 677.11C309.43 680.35 296.59 683.11 286.16 679.73C285.037 679.372 283.941 678.935 282.88 678.42C272.48 673.32 265.52 662.63 260.09 652.86C234.09 606.11 223.29 552.43 217.6 499.27C228.98 497.7 240.32 495.95 251.52 493.54C251.52 493.54 251.52 493.62 251.59 493.65L264.5 515.06L265.56 516.84C268.36 520.84 273.21 521.91 277.84 521.51C280.784 521.364 283.612 520.317 285.94 518.51C293.12 512.51 286.38 504.37 282.66 498.64" fill="#EFBEDC"/>
<path opacity="0.77" d="M296.58 516.94C301.01 522.94 308.58 522.18 314.84 518.07C318.62 515.57 321.72 516.3 318.53 508.59C319.12 509.43 319.2 506.59 319.72 507.22C326.17 515.98 319.8 503.6 319.8 503.6C328.8 514.97 348.39 504.26 344.8 495.47C341 486 337 472 331.93 465C335.93 461.22 335.16 461.78 340.25 464.79C341.617 465.669 342.762 466.854 343.593 468.251C344.425 469.648 344.92 471.219 345.04 472.84C345.45 476.65 345.86 480.3 346.27 484.02L350.17 519.02C351.48 530.65 352.78 542.4 355.61 553.72C357.073 559.841 359.102 565.814 361.67 571.56C365.25 579.47 376.75 592.64 383.03 598.67C390.84 590.92 400.2 576.67 405.93 567.2C416.93 570.58 416.45 581.1 417.23 592.59V592.89C419.45 613.78 399.33 629.47 382.47 639.14C362.93 650.37 341.16 658.77 319.77 665.77C310.95 668.67 299.49 671.17 290.18 668.11C289.176 667.793 288.196 667.402 287.25 666.94C277.97 662.38 271.75 652.85 266.9 644.12C245.67 605.99 235.82 562.7 230.4 519.3C230.002 516.053 230.881 512.778 232.851 510.166C234.821 507.554 237.728 505.81 240.96 505.3C247.05 504.3 253.12 503.3 259.15 501.96L259.32 502.04L270.84 521.15C273.35 524.7 273.76 521.92 277.89 521.56C280.5 521.33 285.56 520.82 287.58 519.13C293.99 513.79 290.37 511.58 287.05 506.47" fill="#EFBEDC"/>
</g>
<path d="M509.89 700.69C509.89 700.69 476.68 689.77 476.18 708.13" stroke="white" stroke-width="5.47" stroke-miterlimit="10"/>
<path opacity="0.54" d="M212.62 887.72L147.49 720.86C146.683 717.631 146.623 714.261 147.313 711.005C148.004 707.749 149.428 704.694 151.476 702.07C153.525 699.447 156.144 697.326 159.136 695.867C162.127 694.408 165.412 693.649 168.74 693.65H427.44C433.249 693.649 438.889 695.604 443.452 699.199C448.014 702.795 451.233 707.822 452.59 713.47L523.89 880.29C524.661 883.508 524.692 886.859 523.982 890.091C523.271 893.323 521.838 896.352 519.789 898.95C517.74 901.548 515.129 903.649 512.152 905.093C509.175 906.538 505.909 907.289 502.6 907.29H237.71C231.944 907.293 226.343 905.369 221.797 901.823C217.251 898.277 214.021 893.313 212.62 887.72Z" fill="white"/>
<path d="M520.7 728.84C520.7 728.84 526.09 733.78 524.04 740.84C522.52 746.07 517.32 749.37 512.17 747.58C495.77 741.91 481 732.28 477.4 715.91C475.699 707.621 475.331 699.115 476.31 690.71C477.1 682.92 478.25 674.51 480.87 667.1C484.87 655.72 497.12 647.79 509.01 653.27" stroke="white" stroke-width="5.47" stroke-miterlimit="10"/>
<path d="M212.62 887.72L147.49 720.86C146.683 717.631 146.623 714.261 147.313 711.005C148.004 707.749 149.428 704.694 151.476 702.07C153.525 699.447 156.144 697.326 159.136 695.867C162.127 694.408 165.412 693.649 168.74 693.65H427.44C433.249 693.649 438.889 695.604 443.452 699.199C448.014 702.795 451.233 707.822 452.59 713.47L523.89 880.29C524.661 883.508 524.692 886.859 523.982 890.091C523.271 893.323 521.838 896.352 519.789 898.95C517.74 901.548 515.129 903.649 512.152 905.093C509.175 906.538 505.909 907.289 502.6 907.29H237.71C231.944 907.293 226.343 905.369 221.797 901.823C217.251 898.277 214.021 893.313 212.62 887.72Z" fill="#EFBEDC"/>
<path d="M212.62 887.72L147.49 720.86C146.683 717.631 146.623 714.261 147.313 711.005C148.004 707.749 149.428 704.694 151.476 702.07C153.525 699.447 156.144 697.326 159.136 695.867C162.127 694.408 165.412 693.649 168.74 693.65H427.44C433.249 693.649 438.889 695.604 443.452 699.199C448.014 702.795 451.233 707.822 452.59 713.47L523.89 880.29C524.661 883.508 524.692 886.859 523.982 890.091C523.271 893.323 521.838 896.352 519.789 898.95C517.74 901.548 515.129 903.649 512.152 905.093C509.175 906.538 505.909 907.289 502.6 907.29H237.71C231.944 907.293 226.343 905.369 221.797 901.823C217.251 898.277 214.021 893.313 212.62 887.72Z" stroke="white" stroke-width="5.47" stroke-linecap="square" stroke-linejoin="round"/>
<path d="M222.15 881L162.06 727C161.317 724.021 161.263 720.912 161.901 717.909C162.539 714.905 163.853 712.087 165.744 709.668C167.634 707.248 170.051 705.291 172.81 703.945C175.57 702.599 178.6 701.9 181.67 701.9H420.33C425.688 701.898 430.891 703.7 435.1 707.016C439.309 710.333 442.279 714.97 443.53 720.18L509.32 874.09C510.03 877.06 510.058 880.151 509.402 883.133C508.746 886.115 507.422 888.91 505.531 891.307C503.641 893.704 501.231 895.642 498.484 896.974C495.737 898.306 492.723 898.999 489.67 899H245.29C239.979 899.004 234.819 897.236 230.628 893.975C226.436 890.715 223.453 886.148 222.15 881V881Z" fill="#EFBEDC"/>
<path d="M732.92 856.84L778.68 962.73" stroke="white" stroke-width="5.47" stroke-miterlimit="10"/>
<path d="M950 962.73H50" stroke="white" stroke-width="5.47" stroke-miterlimit="10"/>
<path d="M524.37 484.81C516.95 492.14 505.87 492.13 499.56 485.35" stroke="white" stroke-width="5.47" stroke-miterlimit="10"/>
<path d="M326.62 457.14C330.67 453.35 335.48 449.52 340.55 451.2C346.02 453.02 347.55 459.88 348.17 465.6C349.923 481.32 351.673 497.023 353.42 512.71C355.64 532.71 357.98 553.19 366.29 571.57C370.309 580.553 375.988 588.696 383.03 595.57" stroke="white" stroke-width="5.47" stroke-miterlimit="10"/>
<path d="M428.54 595.45V595.12C427.981 588.675 425.539 582.536 421.52 577.467C417.5 572.398 412.078 568.623 405.93 566.61C399.503 577.171 391.813 586.909 383.03 595.61C360.003 618.506 330.422 633.67 298.39 639C299.93 645.13 303.1 650.71 305.29 656.61C307.48 662.51 308.57 669.34 305.91 675.03C302.55 682.29 292.91 681.34 286.21 679.73C286.14 679.73 286.1 679.73 286.03 679.73" stroke="white" stroke-width="5.47" stroke-miterlimit="10"/>
<path d="M251.54 493.53C240.34 495.94 229 497.69 217.62 499.26C223.31 552.42 234.07 606.1 260.11 652.85C265.54 662.62 272.5 673.31 282.9 678.41C283.961 678.925 285.057 679.362 286.18 679.72C296.61 683.15 309.45 680.34 319.33 677.1C343.33 669.26 367.68 659.85 389.56 647.27C408.45 636.44 430.99 618.86 428.56 595.45C428.325 592.872 427.798 590.329 426.99 587.87" stroke="white" stroke-width="5.47" stroke-miterlimit="10"/>
<path d="M438.82 387.49C440.498 394.487 444.329 400.782 449.774 405.486C455.219 410.19 462.003 413.067 469.17 413.71C469.765 410.823 471.056 408.125 472.93 405.85C480.93 396.42 484.34 414.11 509.93 401.41C545.39 383.77 558.85 393.89 558.85 393.89C560.03 394.77 559.85 402.89 560.05 404.37C561.05 412.8 561.95 421.19 562.94 429.61C563.54 434.75 564.13 439.85 564.69 444.95C565.173 444.082 565.707 443.244 566.29 442.44C569.52 431.01 575.29 417.51 587.73 423.32C590.249 424.548 592.442 426.354 594.13 428.59C602.38 439.43 596.13 449.9 587.5 457.65C585.337 460.054 582.919 462.217 580.29 464.1C581.71 467.04 587.51 478.71 587.51 478.75C588.11 479.93 608.38 456.99 609.89 454.49C612.146 448.366 613.356 441.906 613.47 435.38C613.8 408.55 602.88 377.32 581.15 361.93C575.76 358.12 577.48 354.45 577.15 349.27C577.127 348.99 577.02 348.723 576.842 348.506C576.665 348.288 576.425 348.129 576.156 348.05C575.886 347.971 575.599 347.975 575.332 348.063C575.065 348.15 574.831 348.317 574.66 348.54C567.85 356.38 550.99 355.6 550.99 355.6C492.47 340.94 472.8 366.96 460.99 371.6C456.171 373.426 450.867 373.514 445.99 371.85C445.703 373.465 444.98 374.97 443.9 376.204C442.819 377.437 441.423 378.352 439.86 378.85L440.16 381.56C440.415 383.632 439.941 385.729 438.82 387.49V387.49Z" fill="#EFBEDC"/>
<path d="M469.21 413.75C462.043 413.107 455.259 410.23 449.814 405.526C444.369 400.822 440.537 394.527 438.86 387.53V387.53C438.203 384.846 437.788 382.108 437.62 379.35L438.08 379.3C438.709 379.253 439.328 379.118 439.92 378.9C441.483 378.402 442.879 377.487 443.96 376.254C445.04 375.02 445.763 373.515 446.05 371.9C446.233 371.005 446.27 370.087 446.16 369.18L444.66 355.94C444.66 355.94 455.24 363.81 466.98 359.21C478.72 354.61 498.43 328.59 556.98 343.21C556.98 343.21 570.2 343.99 576.98 336.15C577.151 335.927 577.385 335.76 577.652 335.673C577.919 335.585 578.206 335.581 578.476 335.66C578.745 335.739 578.985 335.898 579.162 336.116C579.34 336.333 579.447 336.6 579.47 336.88C579.82 342.07 581.74 345.74 587.14 349.54C608.87 364.94 619.79 396.16 619.45 422.99C619.35 434.12 615.65 445.11 609.94 454.54C608.43 457.04 588.16 479.98 587.56 478.8C587.56 478.8 581.76 467.09 580.34 464.15L580 463.5L580.65 463.07C583.064 461.431 585.369 459.638 587.55 457.7C596.17 449.95 602.43 439.48 594.18 428.64C592.491 426.404 590.299 424.598 587.78 423.37C575.3 417.56 569.57 431.06 566.34 442.49C565.713 444.675 565.327 446.921 565.19 449.19C565.04 447.79 564.89 446.44 564.74 445.04C564.18 439.94 563.59 434.84 562.99 429.7C561.99 421.28 561.05 412.89 560.1 404.46C559.95 403.02 560.1 394.86 558.9 393.98C558.9 393.98 545.43 383.86 509.98 401.5C484.39 414.2 480.98 396.5 472.98 405.94C471.106 408.215 469.815 410.913 469.22 413.8C469.037 414.727 468.92 415.666 468.87 416.61C468.851 416.733 468.851 416.857 468.87 416.98C468.75 419.05 468.71 421.11 468.66 423.13C468.47 442.62 470.61 462.98 478.26 481.08C487.56 503.02 512.17 524.66 537.76 514.43C545.76 511.22 552.93 506.05 559.49 500.56" stroke="white" stroke-width="5.47" stroke-miterlimit="10"/>
<path d="M486.722 461.285C489.267 460.433 490.495 457.246 489.465 454.166C488.435 451.087 485.536 449.281 482.99 450.132C480.445 450.984 479.217 454.171 480.247 457.251C481.278 460.33 484.177 462.136 486.722 461.285Z" fill="white"/>
<path d="M524.798 460.068C527.343 459.216 528.571 456.029 527.541 452.95C526.51 449.87 523.612 448.064 521.066 448.916C518.521 449.767 517.293 452.954 518.323 456.034C519.353 459.113 522.252 460.92 524.798 460.068Z" fill="white"/>
<path d="M510.24 466.66C510.24 466.66 497.57 473.85 496.8 466.39C496.56 464.09 493.46 441.56 493.46 441.56C493.46 441.56 483.22 430.71 467.53 438.73" stroke="white" stroke-width="5.47" stroke-miterlimit="10"/>
<path d="M507.39 435.25C507.39 435.25 527.85 425.03 541.39 439.76" stroke="white" stroke-width="5.47" stroke-miterlimit="10"/>
<path d="M526.15 516.94L528.5 529C521.09 535.83 515.85 545.62 517.38 555.93C518.74 565.07 526.22 573.58 533.89 578.37C546.71 586.37 563.76 585.74 577.56 580.65C591.05 575.65 602.72 566.16 611.18 554.58C615.164 548.982 617.818 542.549 618.94 535.77V535.65" stroke="white" stroke-width="5.47" stroke-miterlimit="10"/>
<path d="M528.5 529L533.08 550.78" stroke="white" stroke-width="5.47" stroke-miterlimit="10"/>
<path d="M593.27 473.55L600.19 519.5C600.872 523.998 603.146 528.102 606.598 531.066C610.05 534.029 614.45 535.656 619 535.65V535.65C640.537 539.14 661.782 544.234 682.56 550.89C763.73 577.07 813.69 650.19 827.8 731.89C833.67 766.1 834.11 801.98 826.74 836C822.55 855.15 816.49 876.66 802.42 891C784.15 909.7 756.11 902 734.52 893.55C667.49 867.48 611.74 821.1 563.6 768C537.86 739.6 504.6 716.84 504.6 716.84" stroke="white" stroke-width="5.47" stroke-miterlimit="10"/>
<path d="M244.3 846.53C236.78 846.46 230.23 840.39 228.54 831.94C225.2 815.32 224.32 789.62 248.69 784.01C279.14 777.01 302.56 810.17 314.04 831.13C317.9 838.13 313.53 847.13 306.34 847.13L244.3 846.53Z" fill="#D7E8F0"/>
<path d="M254.353 769.899C260.817 765.598 260.917 754.384 254.574 744.852C248.232 735.321 237.85 731.081 231.385 735.383C224.92 739.684 224.821 750.898 231.163 760.43C237.506 769.961 247.888 774.201 254.353 769.899Z" fill="#D7E8F0"/>
<path d="M754.77 919.12C754.3 919.19 753.77 919.26 753.31 919.37H753.13L682 919L575.27 918.45C574.86 918.45 574.46 918.45 574.06 918.45C573.267 918.431 572.476 918.371 571.69 918.27C578.921 917.43 585.624 914.066 590.62 908.771C595.615 903.475 598.583 896.588 599 889.32C599.02 888.944 599.02 888.566 599 888.19V887.61C598.971 880.499 596.493 873.615 591.983 868.116C587.474 862.618 581.208 858.84 574.24 857.42C573.51 857.24 572.71 857.13 571.94 857.02C573.15 856.91 574.35 856.83 575.52 856.83L665.69 857.31L682.29 857.38L704.68 857.49C712.346 858.19 719.476 861.724 724.675 867.401C729.873 873.079 732.767 880.492 732.79 888.19C732.791 889.643 732.681 891.094 732.46 892.53C731.394 899.859 727.733 906.561 722.143 911.419C716.553 916.277 709.406 918.967 702 919H756.18C753.06 919 753.93 919 754.77 919.12Z" fill="white"/>
<path d="M610.49 956.31C612.522 958.353 614.939 959.973 617.601 961.075C620.264 962.177 623.119 962.74 626 962.73H573.62C563.62 962.73 558.16 960.29 554.18 956.31C550.09 952.202 547.787 946.647 547.77 940.85C547.77 928.85 557.61 919.01 573.62 919.01H626C621.676 919.003 617.447 920.281 613.849 922.68C610.251 925.079 607.446 928.493 605.791 932.488C604.135 936.483 603.702 940.879 604.548 945.12C605.393 949.361 607.479 953.256 610.54 956.31H610.49Z" fill="#D7E8F0"/>
<path d="M783.48 888.74C783.467 893.359 782.392 897.912 780.34 902.05V902.05C778.874 905.177 776.863 908.019 774.4 910.44C770.339 914.464 765.239 917.279 759.67 918.57C757.374 919.1 755.026 919.368 752.67 919.37C753.15 919.26 753.67 919.19 754.13 919.12C753.29 919.04 752.42 919.01 755.55 919.01H701.36C708.771 918.981 715.925 916.292 721.519 911.432C727.113 906.572 730.776 899.864 731.84 892.53C732.061 891.094 732.171 889.643 732.17 888.19C732.147 880.49 729.252 873.076 724.051 867.398C718.85 861.72 711.718 858.187 704.05 857.49L733.3 857.64L752.84 857.75C761.006 857.819 768.812 861.117 774.553 866.924C780.295 872.731 783.504 880.574 783.48 888.74V888.74Z" fill="#FFCA08"/>
<path d="M783.48 888.73C783.419 896.901 780.123 904.714 774.312 910.459C768.502 916.204 760.651 919.412 752.48 919.38L574.56 918.46C573.37 918.46 572.18 918.37 570.98 918.25C578.48 917.4 585.407 913.829 590.45 908.212C595.492 902.596 598.299 895.325 598.339 887.777C598.378 880.229 595.647 872.929 590.664 867.261C585.68 861.592 578.791 857.948 571.3 857.02C572.489 856.895 573.684 856.835 574.88 856.84L752.8 857.76C760.97 857.815 768.785 861.105 774.535 866.91C780.285 872.714 783.501 880.56 783.48 888.73Z" stroke="white" stroke-width="5.47" stroke-linecap="square" stroke-linejoin="round"/>
<path d="M732.15 888.18C732.134 896.349 728.882 904.179 723.105 909.956C717.329 915.732 709.499 918.984 701.33 919H574.74C573.544 918.993 572.349 918.926 571.16 918.8C578.654 917.91 585.562 914.302 590.575 908.66C595.587 903.017 598.355 895.732 598.355 888.185C598.355 880.638 595.587 873.353 590.575 867.71C585.562 862.068 578.654 858.46 571.16 857.57C572.35 857.46 573.55 857.38 574.74 857.38H701.33C709.495 857.398 717.32 860.649 723.096 866.42C728.871 872.192 732.126 880.015 732.15 888.18V888.18Z" stroke="white" stroke-width="5.47" stroke-linecap="square" stroke-linejoin="round"/>
<path d="M547.77 940.86C547.769 943.728 548.334 946.568 549.432 949.217C550.531 951.867 552.14 954.274 554.17 956.3C558.17 960.3 563.6 962.73 573.61 962.73H755.54C752.41 962.73 753.26 962.67 754.11 962.59C748.787 961.963 743.879 959.405 740.317 955.399C736.755 951.394 734.788 946.22 734.788 940.86C734.788 935.5 736.755 930.326 740.317 926.321C743.879 922.315 748.787 919.757 754.11 919.13C753.26 919.05 752.41 918.99 755.54 918.99H573.61C557.59 919 547.77 928.84 547.77 940.86Z" stroke="white" stroke-width="5.47" stroke-linecap="square" stroke-linejoin="round"/>
<path d="M604.07 940.86C604.083 946.656 606.392 952.211 610.49 956.31C614.589 960.408 620.144 962.717 625.94 962.73H751.57C752.41 962.73 753.26 962.67 754.11 962.59C748.787 961.963 743.879 959.405 740.317 955.399C736.755 951.394 734.788 946.22 734.788 940.86C734.788 935.5 736.755 930.326 740.317 926.321C743.879 922.315 748.787 919.757 754.11 919.13C753.26 919.05 752.41 918.99 751.57 918.99H625.94C620.145 919.006 614.591 921.315 610.493 925.413C606.395 929.511 604.086 935.065 604.07 940.86V940.86Z" stroke="white" stroke-width="5.47" stroke-linecap="square" stroke-linejoin="round"/>
<path d="M400.42 774H344.3C341.732 773.995 339.221 773.244 337.073 771.838C334.925 770.432 333.232 768.431 332.2 766.08C331.802 765.205 331.631 764.243 331.705 763.284C331.778 762.325 332.093 761.4 332.62 760.596C333.147 759.791 333.869 759.133 334.719 758.683C335.569 758.233 336.518 758.005 337.48 758.02H397.14C394.33 762.75 395.76 769.32 400.42 774Z" fill="#D7E8F0"/>
<path d="M436.71 768.22C436.707 769.749 436.099 771.216 435.017 772.297C433.936 773.379 432.47 773.987 430.94 773.99H400.42C395.76 769.32 394.33 762.75 397.14 757.99H424.09C426.655 757.991 429.164 758.735 431.314 760.134C433.463 761.533 435.161 763.525 436.2 765.87C436.523 766.612 436.696 767.411 436.71 768.22V768.22Z" fill="#23B5D3"/>
<path d="M422.67 774C422.512 774.305 422.328 774.596 422.12 774.87C418.12 780.34 409.43 780.87 402.68 775.93C401.882 775.341 401.127 774.696 400.42 774C395.76 769.33 394.33 762.76 397.14 758C397.298 757.695 397.482 757.404 397.69 757.13C401.69 751.62 410.34 751.13 417.09 756.03C417.903 756.638 418.668 757.307 419.38 758.03C424 762.68 425.44 769.21 422.67 774Z" fill="white"/>
<path d="M450.82 803.45C450.809 804.981 450.194 806.446 449.107 807.525C448.021 808.604 446.551 809.21 445.02 809.21H386.13C388.97 804.43 387.55 797.91 382.88 793.21H438.2C440.769 793.211 443.281 793.959 445.432 795.364C447.582 796.768 449.277 798.768 450.31 801.12C450.64 801.853 450.813 802.646 450.82 803.45V803.45Z" fill="#23B5D3"/>
<path d="M386.13 809.21H358.42C355.855 809.212 353.344 808.468 351.194 807.069C349.044 805.67 347.347 803.676 346.31 801.33C345.983 800.596 345.81 799.803 345.8 799C345.799 798.243 345.947 797.494 346.236 796.794C346.525 796.095 346.949 795.459 347.484 794.924C348.019 794.389 348.655 793.965 349.354 793.676C350.054 793.387 350.803 793.239 351.56 793.24H382.88C387.55 797.91 389 804.43 386.13 809.21Z" fill="#D7E8F0"/>
<path d="M386.13 809.21C386 809.525 385.828 809.821 385.62 810.09C381.62 815.59 372.96 816.09 366.22 811.18C365.404 810.572 364.636 809.903 363.92 809.18C359.29 804.51 357.87 797.99 360.64 793.18C360.8 792.873 360.984 792.579 361.19 792.3C365.19 786.83 373.88 786.3 380.62 791.25C381.423 791.833 382.178 792.479 382.88 793.18C387.55 797.91 389 804.43 386.13 809.21Z" fill="white"/>
<path d="M405.75 844.18H370.49C367.926 844.177 365.418 843.431 363.269 842.033C361.119 840.634 359.421 838.643 358.38 836.3C357.983 835.422 357.814 834.458 357.888 833.497C357.963 832.537 358.278 831.61 358.805 830.804C359.333 829.997 360.055 829.337 360.905 828.883C361.756 828.43 362.706 828.198 363.67 828.21H402.47C399.69 833 401.12 839.51 405.75 844.18Z" fill="#23B5D3"/>
<path d="M462.89 838.46C462.882 839.982 462.271 841.438 461.192 842.51C460.112 843.582 458.651 844.183 457.13 844.18H405.75C401.12 839.51 399.69 832.99 402.47 828.18H450.27C452.838 828.181 455.351 828.929 457.502 830.333C459.652 831.738 461.347 833.738 462.38 836.09C462.709 836.837 462.883 837.644 462.89 838.46V838.46Z" fill="#D7E8F0"/>
<path d="M428 844.18C427.84 844.487 427.656 844.781 427.45 845.06C423.45 850.56 414.8 851.06 408.05 846.15C407.239 845.539 406.474 844.871 405.76 844.15C401.13 839.48 399.7 832.96 402.48 828.15C402.633 827.841 402.813 827.546 403.02 827.27C407.02 821.8 415.71 821.33 422.46 826.22C423.262 826.803 424.018 827.449 424.72 828.15C429.38 832.88 430.8 839.44 428 844.18Z" fill="white"/>
<path d="M161.61 525.37L162.49 525.62L162.16 526.9C161.951 526.4 161.767 525.889 161.61 525.37V525.37Z" fill="#353642"/>
<path d="M318.106 605.373C331.27 601.509 338.186 585.588 333.555 569.812C328.924 554.036 314.499 544.38 301.336 548.244C288.172 552.108 281.256 568.03 285.887 583.806C290.518 599.581 304.943 609.238 318.106 605.373Z" fill="#D7E8F0"/>
</svg>
