<svg width="934" height="934" viewBox="0 0 934 934" fill="none" xmlns="http://www.w3.org/2000/svg">
<g clip-path="url(#clip0_209_10034)">
<path d="M320.922 176.003V-334.727H86.9554V242.952" stroke="#37517E" stroke-width="4.82" stroke-miterlimit="10"/>
<path d="M297.666 7.47198V37.36H267.778V-17.4845H297.666V7.47198ZM292.753 -12.5903H272.728V7.47198H292.753V-12.5903ZM292.753 12.3755H272.728V32.4565H292.753V12.3755Z" fill="#D7E8F0"/>
<path d="M244.97 7.47198V37.36H215.082V-17.4845H244.97V7.47198ZM240.038 -12.5717H219.976V7.47198H240.038V-12.5717ZM240.038 12.3942H219.976V32.4565H240.038V12.3942Z" fill="#D7E8F0"/>
<path d="M193.712 7.47198V37.36H163.824V-17.4845H193.712V7.47198ZM188.799 -12.5903H168.736V7.47198H188.799V-12.5903ZM188.799 12.3755H168.736V32.4565H188.799V12.3755Z" fill="#D7E8F0"/>
<path d="M145.461 7.47198V37.36H115.573V-17.4845H145.461V7.47198ZM140.558 -12.5903H120.486V7.47198H140.558V-12.5903ZM140.558 12.3755H120.486V32.4565H140.558V12.3755Z" fill="#D7E8F0"/>
<path d="M331.243 636.175C339.135 644.133 346.953 652.987 355.284 661.029C357.576 663.265 359.92 665.425 362.317 667.511C364.979 669.827 367.725 672.032 370.537 674.049C370.741 673.461 370.991 672.889 371.284 672.34C376 663 388.796 657.088 390.384 646.496C391.832 636.605 382.912 627.517 384.369 617.822C386.013 606.857 399.5 600.347 401.994 589.634C403.581 582.984 402.162 575.316 402.741 568.46C403.403 560.795 404.7 553.197 406.617 545.746C405.683 545.68 404.749 545.652 403.815 545.624C384.855 545.307 366.193 555.954 360.057 570.917C355.116 583.059 357.629 596.985 351.063 608.333C350.668 609.067 350.221 609.772 349.727 610.444C348.857 611.634 347.921 612.775 346.925 613.862L344.842 616.029C344.497 616.375 344.114 616.692 343.768 617.066C343.423 617.439 343.049 617.766 342.703 618.14C339.434 621.269 336.1 624.416 333.933 628.152C333.737 628.477 333.562 628.814 333.41 629.161C333.213 629.508 333.039 629.867 332.887 630.235C332.691 630.637 332.541 631.02 332.401 631.393C332.261 631.767 332.084 632.327 331.934 632.72C331.729 633.42 331.533 634.083 331.383 634.774C331.383 634.952 331.383 635.101 331.327 635.241C331.271 635.382 331.327 635.354 331.327 635.419C331.314 635.474 331.314 635.532 331.327 635.587C331.327 635.708 331.327 635.792 331.271 635.877V635.933C331.285 636.015 331.275 636.099 331.243 636.175V636.175Z" fill="white"/>
<path d="M331.122 636.755H331.094L331.122 636.782V636.755Z" fill="white"/>
<path d="M331.066 636.699C330.832 636.493 330.636 636.353 330.402 636.147C330.599 636.325 330.832 636.521 331.038 636.727C331.038 636.727 331.038 636.727 331.094 636.727L331.066 636.699Z" fill="white"/>
<path d="M264.686 590.718C264.887 593.974 264.887 597.24 264.686 600.497C270.384 601.888 275.997 603.42 281.498 605.269C284.917 606.399 288.27 607.642 291.623 609.061C300.926 612.835 309.686 617.829 317.672 623.912C315.932 620.945 314.707 617.705 314.048 614.329C314.048 614.189 313.992 614.04 313.964 613.871C312.516 606.876 312.404 599.525 309.107 592.838C302.971 580.509 285.029 571.571 266.246 570.992H265.901C264.191 570.992 262.454 570.992 260.717 571.076C262.662 577.482 263.991 584.059 264.686 590.718V590.718Z" fill="white"/>
<path d="M273.223 581.714L281.554 605.232C284.973 606.362 288.326 607.604 291.679 609.024C286.327 598.619 280.2 589.214 273.223 581.714Z" fill="white"/>
<path d="M331.028 636.792C331.029 636.605 331.057 636.419 331.112 636.241C331.056 636.586 331.028 636.792 331.028 636.792Z" fill="white"/>
<path d="M394.381 558.074C375.701 582.293 363.298 623.454 355.284 661.029C357.576 663.265 359.92 665.425 362.317 667.511L394.381 558.074Z" fill="white"/>
<path d="M328.422 598.909C332.158 610.313 332.299 621.829 331.86 629.124C331.747 631.481 331.497 633.829 331.112 636.157L328.422 598.909Z" fill="white"/>
<path d="M331.243 636.175C339.135 644.133 346.953 652.987 355.284 661.029C357.576 663.265 359.92 665.425 362.317 667.511C364.979 669.827 367.725 672.032 370.537 674.049C370.741 673.461 370.991 672.889 371.284 672.34C376 663 388.796 657.088 390.384 646.496C391.832 636.605 382.912 627.517 384.369 617.822C386.013 606.857 399.5 600.347 401.994 589.634C403.581 582.984 402.162 575.316 402.741 568.46C403.403 560.795 404.7 553.197 406.617 545.746C405.683 545.68 404.749 545.652 403.815 545.624C384.855 545.307 366.193 555.954 360.057 570.917C355.116 583.059 357.629 596.985 351.063 608.333C350.668 609.067 350.221 609.772 349.727 610.444C348.857 611.634 347.921 612.775 346.925 613.862L344.842 616.029C344.497 616.375 344.114 616.692 343.768 617.066C343.423 617.439 343.049 617.766 342.703 618.14C339.434 621.269 336.1 624.416 333.933 628.152C333.737 628.477 333.562 628.814 333.41 629.161C333.213 629.508 333.039 629.867 332.887 630.235C332.691 630.637 332.541 631.02 332.401 631.393C332.261 631.767 332.084 632.327 331.934 632.72C331.729 633.42 331.533 634.083 331.383 634.774C331.383 634.952 331.383 635.101 331.327 635.241C331.271 635.382 331.327 635.354 331.327 635.419C331.314 635.474 331.314 635.532 331.327 635.587C331.327 635.708 331.327 635.792 331.271 635.877V635.933C331.285 636.015 331.275 636.099 331.243 636.175V636.175Z" stroke="#37517E" stroke-width="4.65" stroke-miterlimit="10"/>
<path d="M314.048 614.357C314.71 617.723 315.935 620.954 317.672 623.912" stroke="#37517E" stroke-width="4.65" stroke-miterlimit="10"/>
<path d="M264.714 600.497C264.915 597.24 264.915 593.974 264.714 590.718C264.017 584.068 262.688 577.501 260.745 571.104C262.482 570.992 264.219 570.992 265.929 571.02H266.274C285.057 571.599 302.999 580.537 309.135 592.866C312.432 599.553 312.544 606.876 313.992 613.9" stroke="#37517E" stroke-width="4.65" stroke-miterlimit="10"/>
<path d="M314.039 614.367C314.039 614.217 313.983 614.077 313.955 613.9" stroke="#37517E" stroke-width="4.65" stroke-miterlimit="10"/>
<path d="M313.964 613.862C313.964 614.03 314.02 614.18 314.048 614.32C314.706 617.699 315.931 620.942 317.672 623.912" stroke="#37517E" stroke-width="4.65" stroke-miterlimit="10"/>
<path d="M314.039 614.367C314.039 614.217 313.983 614.077 313.955 613.9" stroke="#37517E" stroke-width="4.65" stroke-miterlimit="10"/>
<path d="M331.122 636.614V636.754" stroke="#37517E" stroke-width="4.65" stroke-miterlimit="10"/>
<path d="M273.223 581.714C280.2 589.186 286.299 598.619 291.679 609.061" stroke="#37517E" stroke-width="4.65" stroke-miterlimit="10"/>
<path d="M331.028 636.792C331.029 636.605 331.057 636.419 331.112 636.241C331.056 636.586 331.028 636.792 331.028 636.792Z" stroke="#37517E" stroke-width="4.65" stroke-miterlimit="10"/>
<path d="M394.381 558.074C375.701 582.293 363.298 623.454 355.284 661.029" stroke="#37517E" stroke-width="4.65" stroke-miterlimit="10"/>
<path d="M328.422 598.909C332.158 610.313 332.299 621.829 331.86 629.124C331.747 631.481 331.497 633.829 331.112 636.157" stroke="#37517E" stroke-width="4.65" stroke-miterlimit="10"/>
<path d="M129.751 330.057C117.861 374.59 105.598 422.57 106.607 468.345C107.681 516.586 132.245 557.075 176.255 577.623C204.901 590.988 235.695 593.445 264.714 600.478C270.412 601.87 276.025 603.401 281.526 605.251C284.945 606.381 288.298 607.623 291.651 609.043C300.945 612.824 309.695 617.825 317.672 623.912" stroke="#37517E" stroke-width="4.65" stroke-miterlimit="10"/>
<path d="M604.98 76.588C604.98 76.588 660.422 63.9323 706.571 79.5301C712.32 81.4242 717.89 83.8247 723.215 86.7032C749.367 100.853 769.102 127.444 767.655 175.741C766.879 200.959 768.355 225.832 773.324 249.966C774.949 257.8 776.957 265.552 779.348 273.223C785.205 291.98 793.659 309.824 804.463 326.237C838.872 378.41 833.66 432.638 795.497 482.925C793.498 485.559 791.444 488.164 789.333 490.714" stroke="#37517E" stroke-width="4.65" stroke-miterlimit="10"/>
<path d="M201.006 53.4808H542.252C581.611 53.4808 613.517 85.3869 613.517 124.745V446.359C613.517 485.717 581.611 517.623 542.252 517.623H201.006C161.648 517.623 129.742 485.717 129.742 446.359V124.745C129.742 85.3869 161.648 53.4808 201.006 53.4808Z" fill="#23B5D3"/>
<path d="M205.742 46.7H544.578C586.551 46.7 620.578 80.7262 620.578 122.7V441.623C620.578 483.597 586.551 517.623 544.578 517.623H205.742C163.768 517.623 129.742 483.597 129.742 441.623V122.7C129.742 80.7262 163.768 46.7 205.742 46.7Z" stroke="#37517E" stroke-width="4.65" stroke-miterlimit="10"/>
<path d="M210.524 62.606H532.735C572.093 62.606 603.999 94.5121 603.999 133.87V437.224C603.999 476.582 572.093 508.488 532.735 508.488H210.524C171.166 508.488 139.259 476.582 139.259 437.224V133.87C139.259 94.5121 171.166 62.606 210.524 62.606Z" fill="#23B5D3"/>
<path d="M193.974 86H291.091C304.29 86 315 97.1355 315 110.839V328.107C315 341.837 304.29 353 291.091 353H193.974C180.747 353 170 341.837 170 328.107V110.839C170 97.1355 180.747 86 193.974 86ZM176.879 329.053C176.896 333.621 178.782 337.996 182.124 341.225C185.466 344.454 189.994 346.274 194.72 346.288H290.28C295.012 346.274 299.547 344.452 302.896 341.221C306.245 337.989 308.136 333.609 308.158 329.035V109.947C308.136 105.373 306.245 100.993 302.896 97.7612C299.547 94.5296 295.012 92.7081 290.28 92.6939H194.72C189.991 92.7082 185.46 94.5308 182.117 97.7635C178.775 100.996 176.891 105.376 176.879 109.947V329.053Z" fill="#A3D6F2"/>
<path d="M195.139 377H292.926C306.207 377 317 390.182 317 406.403V445.522C317 461.786 306.207 475 292.926 475H195.139C181.821 475 171 461.786 171 445.522V406.403C171 390.182 181.821 377 195.139 377ZM177.926 446.653C177.939 452.062 179.835 457.246 183.202 461.071C186.568 464.896 191.13 467.986 195.89 468L292.11 468C296.874 467.986 301.44 464.898 304.812 461.074C308.184 457.25 310.089 452.066 310.111 446.653V405.347C310.089 399.933 308.184 394.748 304.812 390.923C301.44 387.097 296.875 383.517 292.11 383.5L195.89 383.5C191.129 383.517 186.567 387.098 183.201 390.925C179.835 394.752 177.939 399.937 177.926 405.347V446.653Z" fill="#A3D6F2"/>
<path d="M368.575 127.024C373.804 127.022 378.905 128.639 383.178 131.653C387.451 134.666 390.686 138.929 392.439 143.855C394.192 148.78 394.377 154.128 392.969 159.164C391.561 164.199 388.629 168.675 384.575 171.977L450.889 307.137C451.297 307.072 451.708 307.032 452.121 307.015C453.179 307.029 454.229 307.193 455.241 307.501L498.382 253.899C496.456 251.24 495.365 248.069 495.249 244.788C495.133 241.508 495.997 238.267 497.73 235.479C499.464 232.691 501.988 230.483 504.982 229.136C507.975 227.789 511.302 227.364 514.538 227.916C517.774 228.468 520.773 229.971 523.151 232.234C525.529 234.497 527.179 237.416 527.891 240.621C528.603 243.826 528.344 247.17 527.147 250.226C525.95 253.283 523.87 255.914 521.172 257.784L551.406 343.824C554.042 343.982 556.542 345.047 558.481 346.839C560.421 348.632 561.68 351.04 562.045 353.655C562.41 356.271 561.859 358.932 560.484 361.187C559.109 363.442 556.996 365.151 554.504 366.024C552.012 366.898 549.294 366.882 546.813 365.979C544.331 365.075 542.239 363.341 540.891 361.07C539.544 358.799 539.024 356.131 539.42 353.521C539.816 350.91 541.104 348.516 543.065 346.748L512.831 260.698C512.458 260.698 512.094 260.754 511.72 260.754C509.472 260.754 507.248 260.296 505.182 259.409L462.05 312.993C462.959 314.641 463.44 316.49 463.451 318.373C463.495 319.898 463.232 321.417 462.678 322.84C462.124 324.262 461.291 325.559 460.227 326.653C459.163 327.748 457.891 328.618 456.485 329.212C455.079 329.806 453.568 330.113 452.042 330.113C450.516 330.113 449.005 329.806 447.599 329.212C446.193 328.618 444.921 327.748 443.857 326.653C442.793 325.559 441.96 324.262 441.406 322.84C440.852 321.417 440.59 319.898 440.633 318.373C440.641 315.835 441.503 313.374 443.08 311.386L376.766 176.227C373.281 177.455 369.569 177.904 365.891 177.544C362.213 177.184 358.658 176.024 355.477 174.144C352.295 172.264 349.563 169.711 347.474 166.663C345.384 163.615 343.986 160.147 343.379 156.502C342.773 152.857 342.971 149.123 343.961 145.562C344.95 142.002 346.707 138.701 349.109 135.892C351.51 133.083 354.496 130.833 357.859 129.301C361.222 127.769 364.88 126.992 368.575 127.024V127.024Z" fill="#D7E8F0"/>
<path d="M368.211 171.417C357.946 171.417 349.624 163.096 349.624 152.83C349.624 142.565 357.946 134.244 368.211 134.244C378.476 134.244 386.797 142.565 386.797 152.83C386.797 163.096 378.476 171.417 368.211 171.417Z" fill="white"/>
<path d="M362.392 741.773C362.396 743.184 362.83 744.561 363.636 745.719C364.442 746.877 365.581 747.762 366.903 748.255L431.956 772.539C431.956 772.539 435.057 766.786 440.465 757.175L477.62 695.017C487.66 746.668 498.859 798.383 505.798 830.616L512.486 862.708L485.68 871.525C484.069 871.914 482.634 872.832 481.606 874.132C480.578 875.433 480.017 877.04 480.011 878.698C480.013 879.822 480.271 880.931 480.765 881.941C481.259 882.951 481.977 883.836 482.863 884.528C483.749 885.22 484.781 885.701 485.881 885.935C486.981 886.17 488.119 886.151 489.21 885.88L551.34 870.133V854.946L552.816 854.657L551.536 677.505L612.246 663.149C619.858 665.522 627.9 667.698 636.119 669.463C636.208 669.476 636.295 669.494 636.381 669.519C656.33 674.749 677.167 675.647 697.492 672.153C697.67 672.153 697.875 672.069 698.043 672.032C699.519 671.752 700.995 671.425 702.443 671.098C702.882 671.014 703.311 670.93 703.75 670.808C705.02 670.519 706.291 670.145 707.561 669.799C708.261 669.594 708.953 669.426 709.616 669.22C710.279 669.015 710.774 668.847 711.353 668.641C722.292 665.207 732.395 659.529 741.017 651.969C747.627 646.419 753.233 639.771 757.586 632.318C759.454 629.367 761.201 626.266 762.826 623.081C772.689 603.607 774.744 596.985 771.876 596.807C778.191 594.583 784.308 591.833 790.164 588.588C790.164 588.588 803.072 513.261 774.921 437.448C775.46 432.759 775.362 428.018 774.631 423.354C768.701 380.82 736.057 337.099 697.109 319.391C676.244 309.901 642.218 295.34 653.211 266.349C656.686 257.177 661.617 249.275 662.551 239.758C662.636 238.824 662.748 237.993 662.813 237.068C664.373 214.652 651.325 193.366 630.198 185.698C623.285 183.095 615.896 181.999 608.525 182.482C601.154 182.965 593.972 185.017 587.458 188.5C585.208 189.687 583.19 191.269 581.499 193.17C575.073 193.338 567.003 194.468 563.211 196.233C556.785 199.241 551.639 204.509 547.791 210.44C540.693 221.495 537.842 234.748 539.768 247.743C540.874 254.935 543.435 261.825 547.296 267.993C549.2 271.083 551.409 273.974 553.89 276.623C556.066 278.902 559.158 282.227 562.137 283.45C562.104 283.477 562.063 283.491 562.02 283.491C561.978 283.491 561.937 283.477 561.904 283.45L562.772 297.339C544.933 293.276 497.271 276.539 462.33 207.432C459.808 202.08 457.212 196.756 454.484 191.489C446.415 175.807 437.766 160.209 426.306 146.722C423.504 143.453 419.357 140.502 414.901 141.921C410.997 143.164 408.363 147.525 411.081 151.187L429.836 176.816L423.849 176.04C423.197 176.198 422.586 176.496 422.061 176.914C421.535 177.332 421.107 177.859 420.807 178.459C420.506 179.06 420.34 179.718 420.32 180.389C420.301 181.061 420.427 181.728 420.692 182.345L424.484 191.349L422.691 189.238C421.457 187.781 419.708 186.857 417.809 186.66C415.911 186.463 414.009 187.008 412.502 188.18C410.996 189.352 410.001 191.062 409.726 192.951C409.45 194.84 409.916 196.763 411.025 198.316L420.907 211.084C422.231 212.77 423.912 214.142 425.829 215.1L445.387 224.534C439.603 231.644 434.224 239.075 429.276 246.791C440.015 267.374 452.604 286.938 466.888 305.241C490.966 336.259 525.636 370.929 567.965 385.424C568.899 411.063 573.429 436.468 580.462 461.321C558.504 461.321 537.554 461.321 516.371 461.321L500.4 417.741C499.666 415.73 498.331 413.994 496.577 412.767C494.822 411.541 492.733 410.884 490.593 410.885H426.754C425.643 410.889 424.543 411.104 423.513 411.52C421.948 412.167 420.61 413.262 419.667 414.668C418.725 416.075 418.22 417.729 418.217 419.422C418.228 420.46 418.424 421.488 418.796 422.458L423.027 433.46H423.167H441.166L448.488 454.438L446.405 449.142H437.401C435.991 449.142 434.603 449.49 433.36 450.156C432.117 450.822 431.058 451.784 430.277 452.958C429.496 454.132 429.017 455.481 428.883 456.885C428.749 458.288 428.964 459.703 429.509 461.004L437.177 479.347C439.489 484.871 443.155 489.723 447.837 493.457C452.518 497.19 458.065 499.684 463.964 500.708L464.777 500.848L466.281 505.294L465.506 503.762C465.758 504.369 466.047 505.032 466.309 505.761H446.116C446.116 505.761 450.599 518.837 458.846 519.622C459.513 519.673 460.183 519.652 460.845 519.556V519.556H502.688C500.344 522.162 497.71 525.319 494.899 529.027C482.757 528.849 465.095 530.148 460.723 538.628C459.971 539.472 459.284 540.371 458.669 541.318C456.997 544.12 456.446 550.658 456.847 560.101C456.729 569.839 457.546 579.566 459.285 589.149C457.168 593.121 455.132 597.116 453.177 601.132C448.925 609.077 445.091 617.239 441.689 625.584C441.571 625.805 441.474 626.036 441.399 626.275C431.203 649.656 422.258 673.563 414.603 697.894L414.173 699.398C408.382 716.471 403.665 731.985 401.872 741.428L371.517 735.207C370.476 734.862 369.368 734.768 368.283 734.934C367.199 735.1 366.169 735.52 365.278 736.161C364.388 736.802 363.662 737.644 363.16 738.62C362.658 739.596 362.395 740.676 362.392 741.773V741.773Z" fill="white"/>
<path d="M467.14 506.882H446.947C447.776 509.161 448.83 511.351 450.095 513.42C452.588 517.324 456.436 521.406 461.527 520.714H522.788C525.169 520.73 527.489 519.955 529.382 518.51C529.801 516.569 529.681 514.551 529.036 512.673C504.295 508.881 478.946 504.799 467.607 502.455L465.468 502.081L467.14 506.882Z" fill="#3FBDF1"/>
<path d="M419.048 420.655C419.06 421.693 419.256 422.721 419.628 423.69L423.849 434.684H441.857L449.254 455.792L451.944 462.535H510.636L497.037 425.493C496.299 423.483 494.963 421.748 493.207 420.522C491.452 419.296 489.362 418.638 487.221 418.637H423.392C422.28 418.639 421.18 418.855 420.151 419.273C419.793 419.419 419.444 419.584 419.104 419.768C419.076 420.048 419.048 420.365 419.048 420.655Z" fill="#3FBDF1"/>
<path d="M419.039 420.646C419.051 421.684 419.247 422.711 419.618 423.681L423.849 434.674H441.847L435.59 417.694C434.898 415.811 433.566 414.232 431.827 413.233C430.087 412.234 428.052 411.88 426.077 412.232C424.103 412.584 422.315 413.62 421.028 415.159C419.741 416.697 419.037 418.64 419.039 420.646V420.646Z" fill="#3FBDF1"/>
<path d="M446.956 506.882C446.956 506.882 452.747 523.899 463.264 520.238C469.802 517.987 468.821 511.477 467.112 506.844L446.956 506.882Z" fill="#3FBDF1"/>
<path d="M461.751 434.674H491.107" stroke="white" stroke-width="4.65" stroke-linecap="round" stroke-linejoin="round"/>
<path d="M465.365 445.733H494.721" stroke="white" stroke-width="4.65" stroke-linecap="round" stroke-linejoin="round"/>
<path d="M442.37 626.714C447.454 614.422 453.384 602.498 460.116 591.026C457.389 576.577 455.53 551.265 461.443 539.777C465.814 531.287 483.457 529.998 495.636 530.176C505.042 517.744 512.645 511.337 512.645 511.337C512.645 511.337 569.264 520.509 582.19 520.584C595.117 520.658 595.107 527.822 595.107 527.822C595.107 527.822 604.111 554.992 614.292 568.488C624.472 581.985 651.857 598.376 691.319 604.69C730.78 611.004 761.817 603.224 768.934 599.264C776.051 595.304 776.285 599.124 763.545 624.22C750.805 649.317 731.191 667.362 698.249 673.311C677.931 676.81 657.098 675.912 637.156 670.677C637.156 670.677 585.03 657.536 569.74 647.514C554.45 637.492 552.059 651.119 552.059 651.119L553.554 855.834L513.205 863.885L478.348 696.204L441.175 758.408L402.554 742.53C407.103 718.648 430.462 655.668 442.37 626.714Z" fill="#37517E"/>
<path d="M547.819 352.987C548.646 358.673 551.065 364.009 554.796 368.379C557.662 372.042 561.309 375.019 565.472 377.093C566.448 377.565 567.464 377.953 568.507 378.251C568.507 375.01 568.563 371.713 568.741 368.5C569.404 356.461 571.832 343.927 579.5 334.671C583.189 330.249 587.845 326.733 593.109 324.397C592.959 322.174 592.782 319.97 592.642 317.747C592.24 313.946 592.259 310.112 592.698 306.315C593.192 304.01 593.474 301.666 593.538 299.31C593.454 297.115 593.772 288.69 592.035 286.869C589.136 288.077 586.031 288.711 582.891 288.737C575.858 288.681 570.272 284.366 566.508 278.846C565.124 278.393 563.685 278.129 562.231 278.061C557.972 278.696 570.683 290.156 566.536 288.858C569.236 289.689 571.206 293.743 572.477 296.059C574.345 299.646 575.428 303.868 573.597 307.66C571.804 311.284 568.049 314.403 565.388 317.383C561.799 321.151 558.443 325.134 555.338 329.31C550.425 336.147 546.838 344.543 547.819 352.987Z" fill="#EFBEDC"/>
<path d="M612.461 319.634C605.773 320.049 599.213 321.656 593.09 324.378C587.831 326.718 583.178 330.232 579.491 334.652C571.823 343.918 569.394 356.442 568.731 368.482C568.554 371.723 568.47 375.02 568.498 378.233C568.638 406.738 573.383 434.945 581.172 462.526C556.982 462.526 534.033 462.526 510.655 462.526H451.944L449.254 455.792L447.106 450.375H438.046C436.635 450.375 435.245 450.723 434.001 451.39C432.757 452.056 431.697 453.019 430.915 454.194C430.133 455.369 429.654 456.718 429.519 458.123C429.385 459.528 429.6 460.944 430.144 462.246L437.813 480.59C440.13 486.11 443.799 490.959 448.482 494.69C453.164 498.421 458.71 500.915 464.609 501.941L465.422 502.09L467.56 502.464C478.899 504.808 504.248 508.89 528.99 512.682C551.62 516.184 573.756 519.425 584.226 520.929C588.196 521.508 592.249 521.938 596.368 522.199C620.811 523.703 646.048 518.267 652.586 490.443C656.845 472.623 655.911 453.41 655.715 434.861" stroke="#37517E" stroke-width="4.65" stroke-miterlimit="10"/>
<path d="M495.44 530.979C479.618 530.25 465.44 532.595 459.36 542.495C456.296 547.501 457.044 565.154 460.2 589.774" stroke="#37517E" stroke-width="4.65" stroke-miterlimit="10"/>
<path d="M760.5 629.451C760.466 629.493 760.438 629.541 760.416 629.591C753.645 643.395 741.736 655.313 726.503 663.654C672.826 693.019 592.091 658.61 563.053 644.292C561.894 643.722 560.609 643.456 559.319 643.521C558.029 643.586 556.777 643.979 555.681 644.662C554.585 645.346 553.682 646.297 553.056 647.427C552.431 648.557 552.104 649.828 552.106 651.119V871.329L489.986 887.067C489.024 887.314 488.022 887.364 487.04 887.213C486.059 887.063 485.118 886.716 484.274 886.192C483.43 885.668 482.701 884.98 482.13 884.167C481.56 883.354 481.16 882.434 480.954 881.463C480.544 879.575 480.891 877.603 481.92 875.968C482.948 874.334 484.577 873.168 486.455 872.72L513.252 863.894C512.009 855.189 493.834 775.584 478.385 696.213" stroke="#37517E" stroke-width="4.65" stroke-miterlimit="10"/>
<path d="M513.84 510.3C497.962 523.75 486.558 544.429 475.882 561.997C449.87 604.802 430.415 651.39 415.303 699.062C410.736 713.464 406.533 728.016 402.563 742.567L372.227 736.338C370.505 735.778 368.633 735.914 367.011 736.718C365.388 737.521 364.144 738.927 363.545 740.635C362.946 742.343 363.039 744.218 363.805 745.859C364.57 747.499 365.947 748.775 367.641 749.414L432.694 773.698C432.694 773.698 451.729 738.14 478.329 696.176C517.315 634.606 589.354 539.712 608.37 559.952" stroke="#37517E" stroke-width="4.65" stroke-miterlimit="10"/>
<path d="M570.59 299.609C570.59 299.609 506.798 295.191 463.068 208.618C463.068 208.618 449.245 218.154 429.976 247.986C429.976 247.986 484.036 357.703 568.731 386.657" stroke="#37517E" stroke-width="4.65" stroke-miterlimit="10"/>
<path d="M576.362 198.382L572.626 204.06L570.375 207.516C568.092 212.836 566.084 218.269 564.36 223.796L564.248 224.188L559.97 240.533C559.963 240.551 559.963 240.571 559.97 240.589C558.533 242.955 556.551 244.944 554.189 246.389C553.63 246.69 553.11 247.057 552.638 247.482C550.07 250.06 556.841 250.807 558.242 251.657C558.861 252.081 559.368 252.648 559.72 253.31C560.073 253.972 560.261 254.709 560.269 255.458C568.311 288.924 563.137 280.135 566.592 287.579C563.594 285.038 556.141 276.959 556.141 276.959C555.207 276.352 554.329 274.531 553.722 273.625C551.793 270.665 550.134 267.54 548.762 264.285C544.501 254.563 543.517 243.718 545.96 233.388C549.818 217.332 558.812 201.268 576.362 198.382Z" fill="#EFBEDC"/>
<path d="M577.128 208.478C577.812 211.951 579.46 215.162 581.882 217.743C584.513 220.619 587.576 223.068 590.961 225.001C597.33 228.793 604.419 231.66 609.771 236.778C615.13 241.931 618.337 248.923 618.747 256.346C619.121 263.948 616.403 271.822 614.75 278.939C609.51 301.943 611.191 324.051 614.086 347.205C616.832 369.051 622.679 390.431 634.018 409.447C647.393 431.863 669.351 449.805 694.065 459.014C714.613 466.682 754.541 473.482 769.644 452.149C772.25 445.415 772.278 437.71 771.269 430.453C765.338 387.881 732.695 344.188 693.747 326.48C672.882 316.99 638.856 302.411 649.849 273.41C653.352 264.266 658.255 256.374 659.189 246.819C659.273 245.95 659.357 245.082 659.441 244.157C661.011 221.741 647.963 200.464 626.835 192.787C619.924 190.177 612.534 189.077 605.162 189.56C597.79 190.043 590.607 192.099 584.096 195.589C581.784 196.82 579.715 198.459 577.987 200.427C577.869 200.561 577.763 200.704 577.67 200.857C577.538 201.188 577.432 201.528 577.352 201.875C576.836 204.039 576.76 206.284 577.128 208.478V208.478Z" fill="#EFBEDC"/>
<path d="M568.451 377.271C557.168 374.665 547.268 366.586 544.438 354.78C541.804 343.843 545.97 332.616 552.424 323.818C558.411 315.692 570.879 308.874 569.899 297.348C569.581 293.612 567.732 290.343 565.322 287.448C564.453 286.439 563.557 285.505 562.576 284.552" stroke="#37517E" stroke-width="4.65" stroke-miterlimit="10"/>
<path d="M591.717 286.607L592.24 324.742" stroke="#37517E" stroke-width="4.65" stroke-miterlimit="10"/>
<path d="M653.921 267.488C657.405 258.335 662.327 250.443 663.261 240.897C663.355 240.019 663.439 239.141 663.504 238.207C665.083 215.791 652.025 194.524 630.908 186.837C623.994 184.23 616.603 183.13 609.23 183.614C601.857 184.097 594.672 186.151 588.159 189.639C585.853 190.875 583.79 192.517 582.069 194.487L581.63 195.019C580.105 196.883 578.996 199.052 578.379 201.38C577.762 203.708 577.651 206.141 578.053 208.515C578.733 211.979 580.37 215.182 582.779 217.762C585.419 220.643 588.487 223.101 591.876 225.047C598.246 228.839 605.325 231.688 610.696 236.806C616.057 241.973 619.256 248.984 619.644 256.42C620.027 264.023 617.299 271.887 615.674 279.023C610.434 302.028 612.106 324.126 615.002 347.271C617.748 369.117 623.585 390.505 634.943 409.522C648.317 431.938 670.266 449.889 694.989 459.089C715.939 466.897 757.016 473.809 771.447 450.954C776.294 443.286 776.612 433.581 775.36 424.596C769.429 382.034 736.767 338.323 697.838 320.623C676.935 311.022 642.91 296.48 653.921 267.488Z" stroke="#37517E" stroke-width="4.65" stroke-miterlimit="10"/>
<path d="M573.719 241.607C571.712 241.607 570.086 239.98 570.086 237.974C570.086 235.967 571.712 234.341 573.719 234.341C575.725 234.341 577.352 235.967 577.352 237.974C577.352 239.98 575.725 241.607 573.719 241.607Z" fill="#37517E"/>
<path d="M574.569 226.261C574.569 226.261 586.869 231.809 582.975 242.597" stroke="#37517E" stroke-width="4.65" stroke-miterlimit="10"/>
<path d="M563.202 284.73C560.12 283.609 556.832 280.06 554.59 277.734C552.112 275.089 549.897 272.208 547.978 269.132C542.573 260.484 539.751 250.473 539.842 240.276C539.933 230.079 542.933 220.12 548.491 211.57C552.34 205.629 557.467 200.362 563.893 197.373C569.249 194.85 575.243 194.003 581.088 194.944C577.822 197.611 574.892 200.666 572.365 204.042C568.557 209.038 565.892 214.809 564.556 220.947C564.351 222.021 564.173 223.086 563.987 224.169C563.053 229.941 562.529 235.788 559.699 240.514C558.256 242.9 556.264 244.908 553.89 246.371C553.332 246.672 552.811 247.039 552.34 247.463C549.771 250.041 556.543 250.779 557.944 251.629C561.539 253.73 560.204 259.764 560.68 263.257C561.255 267.335 562.475 271.295 564.295 274.988C564.939 276.301 565.673 277.568 566.49 278.78C570.226 284.319 575.83 288.653 582.872 288.69C586.006 288.662 589.104 288.028 591.997 286.822C596.959 284.806 601.396 281.685 604.97 277.697" stroke="#37517E" stroke-width="4.65" stroke-miterlimit="10"/>
<path d="M569.964 265.405C569.964 265.405 578.436 270.234 582.106 259.12" stroke="#37517E" stroke-width="4.65" stroke-miterlimit="10"/>
<path d="M447.648 226.495L426.539 216.296C424.609 215.365 422.923 213.996 421.617 212.298L411.763 199.512C410.628 197.96 410.142 196.026 410.408 194.122C410.674 192.218 411.672 190.492 413.188 189.31C414.705 188.128 416.623 187.584 418.534 187.792C420.446 188 422.202 188.944 423.429 190.424L425.232 192.525L421.43 183.531C421.172 182.913 421.05 182.246 421.072 181.577C421.094 180.907 421.26 180.25 421.559 179.65C421.857 179.05 422.281 178.522 422.802 178.1C423.323 177.679 423.929 177.374 424.578 177.208L430.583 178.002L411.81 152.363C409.148 148.73 411.735 144.34 415.63 143.098C420.113 141.669 424.26 144.621 427.043 147.89C438.494 161.377 447.171 176.974 455.232 192.666C457.94 197.94 460.552 203.257 463.068 208.618" stroke="#37517E" stroke-width="4.65" stroke-linejoin="round"/>
<path d="M430.574 178.002C430.574 178.002 442.819 193.235 425.222 192.525" stroke="#37517E" stroke-width="4.65" stroke-miterlimit="10"/>
<path d="M464.665 501.932C464.665 501.932 473.743 516.661 463.171 520.275C452.598 523.89 446.816 506.891 446.816 506.891H467.224" stroke="#37517E" stroke-width="4.65" stroke-miterlimit="10"/>
<path d="M461.415 520.705H503.519" stroke="#37517E" stroke-width="4.65" stroke-miterlimit="10"/>
<path d="M418.908 420.646C418.92 421.684 419.116 422.711 419.487 423.681L423.709 434.674H441.707L435.459 417.694C434.768 415.811 433.435 414.232 431.696 413.233C429.957 412.234 427.921 411.88 425.946 412.232C423.972 412.584 422.184 413.62 420.897 415.159C419.61 416.697 418.906 418.64 418.908 420.646V420.646Z" stroke="#37517E" stroke-width="4.65" stroke-miterlimit="10"/>
<path d="M506.788 434.674L517.062 462.517L501.119 418.964C500.381 416.951 499.042 415.213 497.282 413.986C495.523 412.76 493.429 412.104 491.284 412.109H427.454" stroke="#37517E" stroke-width="4.65" stroke-miterlimit="10"/>
<path d="M451.925 462.517L441.707 434.674" stroke="#37517E" stroke-width="4.65" stroke-miterlimit="10"/>
<path d="M775.603 438.616C803.763 514.428 790.855 589.774 790.855 589.774C748.321 613.442 688.012 611.387 644.815 590.587C629.535 583.208 613.059 572.094 606.39 555.805C601.496 543.878 596.406 532.044 592.212 519.948" stroke="#37517E" stroke-width="4.65" stroke-miterlimit="10"/>
<path d="M799.887 675.161H552.069" stroke="#37517E" stroke-width="4.65" stroke-miterlimit="10"/>
<path d="M581.153 462.545L583.825 471.577" stroke="#37517E" stroke-width="4.65" stroke-miterlimit="10"/>
<path d="M760.416 629.591C760.416 629.591 771.325 610.126 774.874 597.172" stroke="#37517E" stroke-width="4.65" stroke-miterlimit="10"/>
<path d="M706.571 79.5301V273.223H779.348C776.951 265.558 774.943 257.806 773.324 249.966C768.355 225.832 766.879 200.913 767.655 175.741C769.102 127.444 749.395 100.853 723.215 86.7032C717.89 83.8247 712.32 81.4242 706.571 79.5301Z" stroke="#37517E" stroke-width="4.65" stroke-miterlimit="10"/>
<path d="M723.215 86.7032V249.966H773.352C768.383 225.832 766.907 200.913 767.683 175.741C769.102 127.444 749.395 100.872 723.215 86.7032Z" stroke="#37517E" stroke-width="4.65" stroke-miterlimit="10"/>
<path d="M214 175L214 328" stroke="white" stroke-width="10" stroke-miterlimit="10"/>
<path d="M233 203L233 328" stroke="white" stroke-width="10" stroke-miterlimit="10"/>
<path d="M252 138L252 328" stroke="white" stroke-width="10" stroke-miterlimit="10"/>
<path d="M271 232L271 328" stroke="white" stroke-width="10" stroke-miterlimit="10"/>
<path d="M268.832 429.437C268.243 434.517 266.14 439.302 262.796 443.172C259.453 447.042 255.023 449.817 250.082 451.136C245.141 452.456 239.917 452.26 235.089 450.573C230.261 448.886 226.052 445.786 223.008 441.676C219.964 437.567 218.227 432.637 218.021 427.527C217.815 422.417 219.15 417.363 221.853 413.022C224.556 408.68 228.503 405.252 233.179 403.182C237.856 401.112 243.047 400.496 248.078 401.414C248.299 401.457 248.509 401.544 248.695 401.671C248.881 401.798 249.039 401.962 249.16 402.152C249.28 402.343 249.36 402.556 249.395 402.778C249.43 403.001 249.419 403.228 249.362 403.446L248.86 405.405L244.359 422.98C244.287 423.261 244.29 423.555 244.368 423.833C244.446 424.112 244.595 424.365 244.802 424.568C245.009 424.77 245.265 424.915 245.545 424.987C245.826 425.059 246.12 425.056 246.398 424.978L263.871 420.093L266.259 419.426C266.472 419.366 266.695 419.35 266.914 419.378C267.133 419.406 267.345 419.477 267.536 419.589C267.727 419.7 267.893 419.848 268.026 420.025C268.158 420.202 268.254 420.404 268.307 420.619C268.995 423.505 269.172 426.489 268.832 429.437V429.437Z" fill="white"/>
<path d="M269.891 411.32C269.973 411.535 270.009 411.764 269.998 411.994C269.987 412.224 269.928 412.449 269.825 412.654C269.722 412.859 269.578 413.04 269.401 413.185C269.225 413.331 269.02 413.437 268.801 413.497L267.171 413.958L253.072 417.939C252.796 418.017 252.505 418.02 252.227 417.948C251.949 417.876 251.695 417.731 251.491 417.529C251.286 417.326 251.137 417.072 251.06 416.793C250.983 416.514 250.98 416.22 251.051 415.939L254.695 401.611L255.044 400.236C255.099 400.018 255.198 399.813 255.335 399.635C255.471 399.457 255.643 399.309 255.839 399.201C256.034 399.093 256.25 399.027 256.472 399.006C256.694 398.986 256.918 399.013 257.13 399.084C259.998 400.085 262.621 401.694 264.822 403.805C267.023 405.916 268.752 408.478 269.891 411.32Z" fill="white"/>
</g>
<defs>
<clipPath id="clip0_209_10034">
<rect width="934" height="934" fill="white" transform="matrix(-1 0 0 1 934 0)"/>
</clipPath>
</defs>
</svg>
