<svg width="934" height="934" viewBox="0 0 934 934" fill="none" xmlns="http://www.w3.org/2000/svg">
<g clip-path="url(#clip0_810_545)">
<path d="M320.922 176.003V-334.727H86.9549V242.952" stroke="#37517E" stroke-width="4.82" stroke-miterlimit="10"/>
<path d="M297.664 7.47211V37.3601H267.776V-17.4844H297.664V7.47211ZM292.751 -12.5902H272.726V7.47211H292.751V-12.5902ZM292.751 12.3756H272.726V32.4566H292.751V12.3756Z" fill="#D7E8F0"/>
<path d="M244.969 7.47211V37.3601H215.081V-17.4844H244.969V7.47211ZM240.037 -12.5715H219.975V7.47211H240.037V-12.5715ZM240.037 12.3943H219.975V32.4566H240.037V12.3943Z" fill="#D7E8F0"/>
<path d="M193.711 7.47211V37.3601H163.823V-17.4844H193.711V7.47211ZM188.798 -12.5902H168.736V7.47211H188.798V-12.5902ZM188.798 12.3756H168.736V32.4566H188.798V12.3756Z" fill="#D7E8F0"/>
<path d="M145.461 7.47211V37.3601H115.573V-17.4844H145.461V7.47211ZM140.557 -12.5902H120.486V7.47211H140.557V-12.5902ZM140.557 12.3756H120.486V32.4566H140.557V12.3756Z" fill="#D7E8F0"/>
<path d="M331.243 636.175C339.136 644.133 346.953 652.987 355.285 661.029C357.576 663.265 359.92 665.425 362.318 667.511C364.979 669.827 367.725 672.032 370.537 674.049C370.741 673.461 370.991 672.889 371.284 672.34C376.001 663 388.796 657.088 390.384 646.496C391.832 636.605 382.912 627.517 384.369 617.822C386.013 606.857 399.5 600.347 401.994 589.634C403.582 582.984 402.162 575.316 402.741 568.46C403.404 560.795 404.7 553.197 406.617 545.746C405.683 545.68 404.749 545.652 403.815 545.624C384.855 545.307 366.194 555.954 360.057 570.917C355.116 583.059 357.629 596.985 351.063 608.333C350.668 609.067 350.222 609.772 349.727 610.444C348.857 611.634 347.922 612.775 346.925 613.862L344.842 616.029C344.497 616.375 344.114 616.692 343.768 617.066C343.423 617.439 343.049 617.766 342.704 618.14C339.435 621.269 336.1 624.416 333.933 628.152C333.737 628.477 333.562 628.814 333.41 629.161C333.214 629.508 333.039 629.867 332.887 630.235C332.691 630.637 332.542 631.02 332.402 631.393C332.261 631.767 332.084 632.327 331.935 632.72C331.729 633.42 331.533 634.083 331.383 634.774C331.383 634.952 331.383 635.101 331.327 635.241C331.271 635.382 331.327 635.354 331.327 635.419C331.314 635.474 331.314 635.532 331.327 635.587C331.327 635.708 331.327 635.792 331.271 635.877V635.933C331.285 636.015 331.276 636.099 331.243 636.175Z" fill="white"/>
<path d="M331.125 636.755H331.098L331.125 636.782V636.755Z" fill="white"/>
<path d="M331.066 636.699C330.832 636.493 330.636 636.353 330.403 636.147C330.599 636.325 330.832 636.521 331.038 636.727C331.038 636.727 331.038 636.727 331.094 636.727L331.066 636.699Z" fill="white"/>
<path d="M264.686 590.717C264.887 593.974 264.887 597.24 264.686 600.496C270.383 601.888 275.997 603.42 281.498 605.269C284.917 606.399 288.27 607.641 291.623 609.061C300.926 612.835 309.685 617.829 317.672 623.912C315.932 620.945 314.707 617.705 314.048 614.329C314.048 614.189 313.992 614.039 313.964 613.871C312.516 606.875 312.404 599.525 309.107 592.837C302.971 580.509 285.029 571.57 266.246 570.991H265.9C264.191 570.991 262.454 570.991 260.717 571.075C262.662 577.481 263.991 584.059 264.686 590.717Z" fill="white"/>
<path d="M273.224 581.714L281.555 605.232C284.974 606.362 288.327 607.604 291.68 609.024C286.328 598.619 280.201 589.214 273.224 581.714Z" fill="white"/>
<path d="M331.025 636.792C331.026 636.605 331.054 636.42 331.109 636.241C331.053 636.587 331.025 636.792 331.025 636.792Z" fill="white"/>
<path d="M394.383 558.074C375.703 582.293 363.299 623.454 355.286 661.029C357.577 663.264 359.921 665.425 362.319 667.511L394.383 558.074Z" fill="white"/>
<path d="M328.42 598.909C332.156 610.313 332.296 621.83 331.857 629.124C331.744 631.481 331.495 633.829 331.11 636.157L328.42 598.909Z" fill="white"/>
<path d="M331.243 636.175C339.136 644.133 346.953 652.987 355.285 661.029C357.576 663.265 359.92 665.425 362.318 667.511C364.979 669.827 367.725 672.032 370.537 674.049C370.741 673.461 370.991 672.889 371.284 672.34C376.001 663 388.796 657.088 390.384 646.496C391.832 636.605 382.912 627.517 384.369 617.822C386.013 606.857 399.5 600.347 401.994 589.634C403.582 582.984 402.162 575.316 402.741 568.46C403.404 560.795 404.7 553.197 406.617 545.746C405.683 545.68 404.749 545.652 403.815 545.624C384.855 545.307 366.194 555.954 360.057 570.917C355.116 583.059 357.629 596.985 351.063 608.333C350.668 609.067 350.222 609.772 349.727 610.444C348.857 611.634 347.922 612.775 346.925 613.862L344.842 616.029C344.497 616.375 344.114 616.692 343.768 617.066C343.423 617.439 343.049 617.766 342.704 618.14C339.435 621.269 336.1 624.416 333.933 628.152C333.737 628.477 333.562 628.814 333.41 629.161C333.214 629.508 333.039 629.867 332.887 630.235C332.691 630.637 332.542 631.02 332.402 631.393C332.261 631.767 332.084 632.327 331.935 632.72C331.729 633.42 331.533 634.083 331.383 634.774C331.383 634.952 331.383 635.101 331.327 635.241C331.271 635.382 331.327 635.354 331.327 635.419C331.314 635.474 331.314 635.532 331.327 635.587C331.327 635.708 331.327 635.792 331.271 635.877V635.933C331.285 636.015 331.276 636.099 331.243 636.175V636.175Z" stroke="#37517E" stroke-width="4.65" stroke-miterlimit="10"/>
<path d="M314.048 614.357C314.71 617.724 315.935 620.954 317.672 623.912" stroke="#37517E" stroke-width="4.65" stroke-miterlimit="10"/>
<path d="M264.714 600.497C264.915 597.24 264.915 593.974 264.714 590.718C264.017 584.068 262.688 577.501 260.745 571.104C262.482 570.991 264.219 570.991 265.929 571.019H266.274C285.057 571.599 302.999 580.537 309.135 592.866C312.432 599.553 312.544 606.876 313.992 613.899" stroke="#37517E" stroke-width="4.65" stroke-miterlimit="10"/>
<path d="M314.039 614.366C314.039 614.217 313.983 614.077 313.955 613.899" stroke="#37517E" stroke-width="4.65" stroke-miterlimit="10"/>
<path d="M313.964 613.862C313.964 614.03 314.02 614.18 314.048 614.32C314.706 617.699 315.931 620.942 317.672 623.912" stroke="#37517E" stroke-width="4.65" stroke-miterlimit="10"/>
<path d="M314.039 614.366C314.039 614.217 313.983 614.077 313.955 613.899" stroke="#37517E" stroke-width="4.65" stroke-miterlimit="10"/>
<path d="M331.125 636.614V636.754" stroke="#37517E" stroke-width="4.65" stroke-miterlimit="10"/>
<path d="M273.224 581.714C280.201 589.186 286.3 598.619 291.68 609.061" stroke="#37517E" stroke-width="4.65" stroke-miterlimit="10"/>
<path d="M331.025 636.792C331.026 636.605 331.054 636.42 331.109 636.241C331.053 636.587 331.025 636.792 331.025 636.792Z" stroke="#37517E" stroke-width="4.65" stroke-miterlimit="10"/>
<path d="M394.383 558.074C375.703 582.293 363.299 623.454 355.286 661.029" stroke="#37517E" stroke-width="4.65" stroke-miterlimit="10"/>
<path d="M328.42 598.909C332.156 610.313 332.296 621.83 331.857 629.124C331.744 631.481 331.495 633.829 331.11 636.157" stroke="#37517E" stroke-width="4.65" stroke-miterlimit="10"/>
<path d="M129.751 330.057C117.861 374.59 105.598 422.569 106.607 468.345C107.681 516.586 132.245 557.075 176.255 577.623C204.901 590.988 235.695 593.445 264.714 600.478C270.411 601.869 276.025 603.401 281.526 605.25C284.945 606.381 288.298 607.623 291.651 609.042C300.945 612.824 309.695 617.824 317.672 623.912" stroke="#37517E" stroke-width="4.65" stroke-miterlimit="10"/>
<path d="M604.979 76.588C604.979 76.588 660.422 63.9323 706.57 79.5301C712.32 81.4242 717.889 83.8247 723.214 86.7032C749.366 100.853 769.102 127.444 767.654 175.741C766.879 200.959 768.355 225.832 773.323 249.966C774.949 257.8 776.957 265.552 779.348 273.223C785.205 291.98 793.658 309.824 804.463 326.237C838.872 378.41 833.66 432.638 795.497 482.925C793.498 485.559 791.443 488.164 789.332 490.714" stroke="#37517E" stroke-width="4.65" stroke-miterlimit="10"/>
<path d="M201.005 53.4805H542.251C581.61 53.4805 613.516 85.3865 613.516 124.745V446.358C613.516 485.716 581.61 517.622 542.251 517.622H201.005C161.647 517.622 129.741 485.716 129.741 446.358V124.745C129.741 85.3865 161.647 53.4805 201.005 53.4805Z" fill="#23B5D3"/>
<path d="M205.742 46.7002H544.579C586.552 46.7002 620.578 80.7264 620.578 122.7V441.623C620.578 483.597 586.552 517.623 544.579 517.623H205.742C163.769 517.623 129.742 483.597 129.742 441.623V122.7C129.742 80.7264 163.769 46.7002 205.742 46.7002Z" stroke="#37517E" stroke-width="4.65" stroke-miterlimit="10"/>
<path d="M210.525 62.6064H532.736C572.094 62.6064 604 94.5125 604 133.871V437.224C604 476.583 572.094 508.489 532.736 508.489H210.525C171.166 508.489 139.26 476.583 139.26 437.224V133.871C139.26 94.5125 171.166 62.6064 210.525 62.6064Z" fill="#23B5D3"/>
<path d="M193.974 86H291.091C304.29 86 315 97.1355 315 110.839V328.107C315 341.837 304.29 353 291.091 353H193.974C180.747 353 170 341.837 170 328.107V110.839C170 97.1355 180.747 86 193.974 86ZM176.879 329.053C176.896 333.621 178.782 337.996 182.124 341.225C185.466 344.454 189.994 346.274 194.72 346.288H290.28C295.012 346.274 299.547 344.452 302.896 341.221C306.245 337.989 308.136 333.609 308.158 329.035V109.947C308.136 105.373 306.245 100.993 302.896 97.7612C299.547 94.5296 295.012 92.7081 290.28 92.6939H194.72C189.991 92.7082 185.46 94.5308 182.117 97.7635C178.775 100.996 176.891 105.376 176.879 109.947V329.053Z" fill="#A3D6F2"/>
<path d="M195.139 377H292.926C306.207 377 317 390.182 317 406.403V445.522C317 461.786 306.207 475 292.926 475H195.139C181.821 475 171 461.786 171 445.522V406.403C171 390.182 181.821 377 195.139 377ZM177.926 446.653C177.939 452.062 179.835 457.246 183.202 461.071C186.568 464.896 191.13 467.986 195.89 468L292.11 468C296.874 467.986 301.44 464.897 304.812 461.074C308.184 457.25 310.089 452.066 310.111 446.653V405.347C310.089 399.933 308.184 394.748 304.812 390.923C301.44 387.097 296.875 383.517 292.11 383.5L195.89 383.5C191.129 383.517 186.567 387.098 183.201 390.925C179.835 394.752 177.939 399.937 177.926 405.347V446.653Z" fill="#A3D6F2"/>
<path d="M368.576 127.024C373.805 127.023 378.906 128.639 383.179 131.653C387.452 134.667 390.687 138.929 392.44 143.855C394.193 148.781 394.379 154.129 392.97 159.164C391.562 164.2 388.63 168.676 384.576 171.978L450.89 307.137C451.298 307.072 451.71 307.032 452.123 307.016C453.18 307.029 454.23 307.193 455.242 307.501L498.384 253.899C496.457 251.241 495.367 248.069 495.251 244.789C495.134 241.508 495.998 238.267 497.731 235.479C499.465 232.692 501.989 230.483 504.983 229.136C507.977 227.789 511.304 227.365 514.54 227.916C517.775 228.468 520.774 229.971 523.152 232.234C525.53 234.497 527.18 237.417 527.892 240.621C528.604 243.826 528.345 247.17 527.148 250.227C525.952 253.284 523.871 255.915 521.173 257.784L551.407 343.824C554.043 343.982 556.543 345.048 558.483 346.84C560.422 348.632 561.681 351.04 562.046 353.656C562.412 356.271 561.86 358.932 560.485 361.187C559.111 363.442 556.998 365.151 554.506 366.025C552.013 366.898 549.296 366.882 546.814 365.979C544.333 365.076 542.24 363.341 540.893 361.07C539.545 358.799 539.025 356.132 539.421 353.521C539.818 350.91 541.105 348.517 543.066 346.748L512.833 260.698C512.459 260.698 512.095 260.754 511.721 260.754C509.473 260.754 507.249 260.297 505.183 259.41L462.051 312.993C462.96 314.641 463.442 316.491 463.452 318.373C463.496 319.899 463.233 321.418 462.679 322.84C462.126 324.262 461.292 325.559 460.228 326.654C459.165 327.748 457.892 328.618 456.486 329.213C455.08 329.807 453.57 330.113 452.043 330.113C450.517 330.113 449.006 329.807 447.6 329.213C446.194 328.618 444.922 327.748 443.858 326.654C442.794 325.559 441.961 324.262 441.407 322.84C440.854 321.418 440.591 319.899 440.634 318.373C440.642 315.835 441.504 313.374 443.082 311.387L376.768 176.227C373.282 177.455 369.57 177.904 365.892 177.545C362.214 177.185 358.659 176.024 355.478 174.144C352.296 172.265 349.565 169.711 347.475 166.664C345.385 163.616 343.988 160.148 343.381 156.502C342.774 152.857 342.972 149.123 343.962 145.563C344.952 142.002 346.709 138.702 349.11 135.892C351.511 133.083 354.498 130.834 357.861 129.302C361.224 127.77 364.881 126.992 368.576 127.024Z" fill="#D7E8F0"/>
<path d="M368.21 171.417C357.945 171.417 349.624 163.096 349.624 152.831C349.624 142.566 357.945 134.244 368.21 134.244C378.475 134.244 386.797 142.566 386.797 152.831C386.797 163.096 378.475 171.417 368.21 171.417Z" fill="white"/>
<path d="M362.391 741.773C362.395 743.184 362.829 744.561 363.635 745.719C364.441 746.877 365.581 747.762 366.903 748.255L431.956 772.539C431.956 772.539 435.057 766.786 440.465 757.175L477.619 695.017C487.66 746.668 498.858 798.383 505.798 830.615L512.485 862.708L485.679 871.525C484.068 871.913 482.634 872.832 481.606 874.132C480.578 875.432 480.016 877.04 480.01 878.698C480.012 879.822 480.27 880.931 480.765 881.941C481.259 882.951 481.976 883.836 482.862 884.527C483.749 885.219 484.781 885.701 485.88 885.935C486.98 886.169 488.119 886.151 489.21 885.88L551.34 870.133V854.946L552.815 854.657L551.536 677.505L612.246 663.149C619.858 665.522 627.9 667.698 636.119 669.463C636.207 669.476 636.295 669.494 636.38 669.519C656.329 674.749 677.167 675.647 697.492 672.153C697.669 672.153 697.875 672.069 698.043 672.032C699.519 671.751 700.994 671.424 702.442 671.098C702.881 671.014 703.311 670.929 703.75 670.808C705.02 670.518 706.29 670.145 707.56 669.799C708.261 669.594 708.952 669.426 709.615 669.22C710.278 669.015 710.773 668.847 711.353 668.641C722.292 665.207 732.395 659.528 741.016 651.969C747.627 646.419 753.232 639.771 757.586 632.318C759.454 629.366 761.2 626.266 762.825 623.081C772.688 603.607 774.743 596.985 771.876 596.807C778.19 594.583 784.308 591.833 790.163 588.588C790.163 588.588 803.071 513.261 774.921 437.448C775.459 432.758 775.362 428.018 774.631 423.354C768.7 380.82 736.057 337.099 697.109 319.391C676.243 309.901 642.218 295.34 653.211 266.349C656.685 257.177 661.617 249.275 662.551 239.758C662.635 238.824 662.747 237.992 662.813 237.068C664.372 214.652 651.324 193.366 630.197 185.698C623.284 183.095 615.895 181.998 608.525 182.482C601.154 182.965 593.971 185.017 587.457 188.5C585.208 189.687 583.189 191.269 581.498 193.17C575.073 193.338 567.003 194.468 563.211 196.233C556.785 199.241 551.639 204.509 547.79 210.439C540.692 221.494 537.842 234.748 539.767 247.743C540.873 254.935 543.435 261.825 547.295 267.992C549.199 271.083 551.408 273.974 553.889 276.623C556.066 278.902 559.157 282.227 562.137 283.45C562.104 283.477 562.062 283.491 562.02 283.491C561.977 283.491 561.936 283.477 561.903 283.45L562.772 297.339C544.932 293.276 497.27 276.539 462.329 207.432C459.808 202.08 457.211 196.756 454.484 191.489C446.414 175.807 437.765 160.209 426.305 146.722C423.503 143.453 419.356 140.501 414.901 141.921C410.997 143.163 408.363 147.525 411.081 151.186L429.836 176.815L423.849 176.04C423.196 176.198 422.586 176.496 422.06 176.914C421.535 177.332 421.107 177.859 420.806 178.459C420.506 179.06 420.34 179.718 420.32 180.389C420.3 181.06 420.427 181.728 420.692 182.345L424.484 191.348L422.69 189.238C421.457 187.781 419.708 186.857 417.809 186.66C415.91 186.463 414.009 187.007 412.502 188.18C410.995 189.352 410 191.062 409.725 192.951C409.45 194.84 409.916 196.762 411.025 198.316L420.907 211.084C422.23 212.77 423.911 214.141 425.829 215.1L445.387 224.533C439.603 231.644 434.224 239.075 429.275 246.791C440.014 267.374 452.604 286.938 466.887 305.24C490.966 336.259 525.636 370.929 567.965 385.424C568.899 411.063 573.429 436.467 580.462 461.321C558.503 461.321 537.554 461.321 516.371 461.321L500.399 417.741C499.665 415.73 498.331 413.994 496.576 412.767C494.822 411.541 492.733 410.884 490.592 410.885H426.753C425.642 410.889 424.543 411.104 423.512 411.52C421.948 412.166 420.609 413.262 419.667 414.668C418.724 416.075 418.22 417.729 418.217 419.422C418.228 420.46 418.424 421.488 418.796 422.457L423.027 433.46H423.167H441.165L448.488 454.438L446.405 449.142H437.401C435.991 449.142 434.603 449.49 433.36 450.156C432.117 450.821 431.058 451.784 430.277 452.958C429.495 454.132 429.017 455.481 428.883 456.884C428.749 458.288 428.964 459.703 429.509 461.004L437.177 479.347C439.489 484.871 443.155 489.723 447.836 493.456C452.518 497.19 458.064 499.684 463.964 500.708L464.777 500.848L466.28 505.294L465.505 503.762C465.757 504.369 466.047 505.032 466.308 505.761H446.115C446.115 505.761 450.598 518.837 458.846 519.621C459.512 519.673 460.183 519.651 460.844 519.556H502.688C500.343 522.162 497.709 525.319 494.898 529.027C482.756 528.849 465.094 530.148 460.723 538.628C459.971 539.471 459.284 540.371 458.668 541.318C456.996 544.12 456.445 550.658 456.847 560.101C456.729 569.839 457.545 579.566 459.285 589.148C457.168 593.121 455.131 597.115 453.176 601.132C448.925 609.077 445.09 617.239 441.688 625.584C441.571 625.805 441.474 626.036 441.399 626.275C431.203 649.656 422.258 673.563 414.602 697.894L414.172 699.398C408.382 716.471 403.665 731.985 401.872 741.428L371.517 735.207C370.475 734.862 369.367 734.768 368.283 734.934C367.198 735.1 366.168 735.52 365.278 736.161C364.387 736.802 363.661 737.644 363.16 738.62C362.658 739.596 362.395 740.676 362.391 741.773Z" fill="white"/>
<path d="M467.138 506.882H446.945C447.773 509.161 448.828 511.351 450.092 513.42C452.586 517.324 456.434 521.406 461.525 520.714H522.786C525.167 520.73 527.486 519.955 529.38 518.51C529.799 516.569 529.679 514.551 529.034 512.673C504.292 508.881 478.944 504.799 467.605 502.455L465.466 502.081L467.138 506.882Z" fill="#3FBDF1"/>
<path d="M419.045 420.655C419.056 421.693 419.252 422.721 419.624 423.691L423.846 434.684H441.853L449.25 455.792L451.94 462.536H510.633L497.034 425.493C496.296 423.483 494.959 421.748 493.203 420.522C491.448 419.296 489.359 418.638 487.217 418.638H423.388C422.277 418.64 421.177 418.855 420.147 419.273C419.79 419.419 419.44 419.584 419.101 419.768C419.073 420.048 419.045 420.366 419.045 420.655Z" fill="#3FBDF1"/>
<path d="M419.035 420.646C419.048 421.684 419.244 422.711 419.615 423.681L423.846 434.674H441.844L435.586 417.694C434.895 415.811 433.562 414.232 431.823 413.233C430.084 412.234 428.048 411.88 426.073 412.232C424.099 412.584 422.311 413.62 421.024 415.159C419.737 416.697 419.033 418.64 419.035 420.646Z" fill="#3FBDF1"/>
<path d="M446.96 506.882C446.96 506.882 452.751 523.9 463.268 520.238C469.806 517.987 468.825 511.477 467.116 506.845L446.96 506.882Z" fill="#3FBDF1"/>
<path d="M461.754 434.674H491.109" stroke="white" stroke-width="4.65" stroke-linecap="round" stroke-linejoin="round"/>
<path d="M465.363 445.732H494.719" stroke="white" stroke-width="4.65" stroke-linecap="round" stroke-linejoin="round"/>
<path d="M442.37 626.714C447.453 614.422 453.383 602.498 460.116 591.026C457.389 576.577 455.53 551.265 461.442 539.777C465.813 531.287 483.456 529.998 495.636 530.176C505.041 517.744 512.644 511.337 512.644 511.337C512.644 511.337 569.263 520.509 582.19 520.584C595.116 520.658 595.107 527.822 595.107 527.822C595.107 527.822 604.111 554.992 614.291 568.488C624.472 581.985 651.857 598.376 691.318 604.69C730.78 611.004 761.816 603.224 768.934 599.264C776.051 595.304 776.284 599.124 763.544 624.22C750.805 649.317 731.191 667.362 698.248 673.311C677.93 676.81 657.097 675.912 637.155 670.677C637.155 670.677 585.029 657.536 569.739 647.514C554.45 637.492 552.059 651.119 552.059 651.119L553.553 855.833L513.204 863.885L478.347 696.204L441.174 758.408L402.553 742.53C407.102 718.648 430.461 655.668 442.37 626.714Z" fill="#37517E"/>
<path d="M547.82 352.987C548.647 358.673 551.066 364.009 554.797 368.379C557.663 372.042 561.31 375.019 565.472 377.094C566.449 377.566 567.465 377.953 568.508 378.252C568.508 375.011 568.564 371.714 568.741 368.501C569.404 356.462 571.833 343.927 579.501 334.671C583.19 330.249 587.846 326.734 593.109 324.397C592.96 322.174 592.783 319.97 592.642 317.747C592.241 313.946 592.26 310.112 592.698 306.315C593.193 304.011 593.475 301.666 593.539 299.31C593.455 297.115 593.773 288.69 592.035 286.869C589.137 288.077 586.032 288.712 582.891 288.737C575.858 288.681 570.273 284.366 566.509 278.846C565.125 278.394 563.686 278.13 562.231 278.062C557.972 278.697 570.684 290.157 566.537 288.859C569.236 289.69 571.207 293.743 572.477 296.06C574.345 299.646 575.429 303.868 573.598 307.66C571.805 311.284 568.05 314.403 565.388 317.383C561.799 321.151 558.443 325.134 555.338 329.31C550.426 336.147 546.839 344.544 547.82 352.987Z" fill="#209390"/>
<path d="M612.461 319.634C605.773 320.049 599.213 321.656 593.09 324.378C587.831 326.718 583.178 330.233 579.491 334.652C571.823 343.918 569.394 356.443 568.731 368.482C568.554 371.723 568.47 375.02 568.498 378.233C568.638 406.739 573.382 434.945 581.172 462.526C556.981 462.526 534.033 462.526 510.655 462.526H451.944L449.254 455.792L447.106 450.375H438.046C436.635 450.375 435.245 450.724 434.001 451.39C432.757 452.056 431.697 453.019 430.915 454.194C430.133 455.369 429.654 456.719 429.519 458.123C429.385 459.528 429.599 460.944 430.144 462.246L437.812 480.59C440.13 486.111 443.799 490.96 448.482 494.691C453.164 498.422 458.71 500.915 464.609 501.941L465.421 502.091L467.56 502.464C478.899 504.809 504.248 508.89 528.989 512.682C551.62 516.185 573.756 519.426 584.226 520.929C588.196 521.509 592.249 521.938 596.368 522.2C620.811 523.703 646.048 518.268 652.586 490.444C656.845 472.623 655.911 453.411 655.715 434.861" stroke="#37517E" stroke-width="4.65" stroke-miterlimit="10"/>
<path d="M495.438 530.979C479.616 530.251 465.437 532.595 459.357 542.496C456.294 547.502 457.041 565.154 460.198 589.775" stroke="#37517E" stroke-width="4.65" stroke-miterlimit="10"/>
<path d="M760.5 629.45C760.466 629.493 760.438 629.54 760.416 629.59C753.644 643.395 741.736 655.313 726.502 663.653C672.825 693.018 592.09 658.61 563.052 644.291C561.894 643.721 560.608 643.456 559.319 643.521C558.029 643.585 556.777 643.978 555.681 644.662C554.585 645.345 553.681 646.297 553.056 647.427C552.43 648.557 552.103 649.827 552.106 651.119V871.328L489.986 887.066C489.024 887.313 488.022 887.363 487.04 887.213C486.059 887.063 485.118 886.715 484.274 886.192C483.43 885.668 482.701 884.979 482.13 884.166C481.56 883.353 481.159 882.434 480.954 881.462C480.544 879.575 480.891 877.602 481.92 875.968C482.948 874.333 484.576 873.167 486.455 872.72L513.251 863.894C512.009 855.189 493.834 775.584 478.385 696.212" stroke="#37517E" stroke-width="4.65" stroke-miterlimit="10"/>
<path d="M513.837 510.3C497.959 523.749 486.555 544.428 475.879 561.997C449.867 604.802 430.412 651.39 415.3 699.061C410.733 713.464 406.53 728.015 402.56 742.567L372.224 736.337C370.502 735.778 368.63 735.914 367.008 736.717C365.385 737.52 364.141 738.926 363.542 740.635C362.943 742.343 363.036 744.218 363.802 745.858C364.567 747.499 365.944 748.775 367.638 749.413L432.691 773.697C432.691 773.697 451.726 738.14 478.326 696.175C517.312 634.606 589.351 539.711 608.367 559.951" stroke="#37517E" stroke-width="4.65" stroke-miterlimit="10"/>
<path d="M570.594 299.608C570.594 299.608 506.802 295.191 463.072 208.618C463.072 208.618 449.248 218.154 429.98 247.986C429.98 247.986 484.04 357.703 568.735 386.657" stroke="#37517E" stroke-width="4.65" stroke-miterlimit="10"/>
<path d="M576.359 198.382L572.623 204.061L570.372 207.516C568.089 212.836 566.082 218.27 564.357 223.796L564.245 224.188L559.968 240.533C559.96 240.551 559.96 240.571 559.968 240.589C558.53 242.956 556.548 244.944 554.186 246.389C553.628 246.691 553.107 247.058 552.636 247.482C550.067 250.06 556.839 250.807 558.24 251.657C558.858 252.082 559.365 252.649 559.718 253.31C560.07 253.972 560.259 254.709 560.267 255.459C568.308 288.924 563.134 280.135 566.59 287.579C563.592 285.038 556.138 276.959 556.138 276.959C555.204 276.352 554.326 274.531 553.719 273.625C551.791 270.666 550.131 267.54 548.76 264.285C544.498 254.563 543.514 243.718 545.958 233.388C549.815 217.333 558.81 201.268 576.359 198.382Z" fill="#209390"/>
<path d="M577.125 208.478C577.809 211.952 579.457 215.162 581.879 217.744C584.51 220.62 587.573 223.068 590.958 225.001C597.328 228.793 604.417 231.66 609.769 236.779C615.127 241.931 618.335 248.923 618.744 256.346C619.118 263.949 616.4 271.822 614.747 278.939C609.507 301.944 611.188 324.052 614.084 347.205C616.83 369.052 622.676 390.431 634.015 409.447C647.39 431.863 669.348 449.805 694.062 459.015C714.61 466.683 754.539 473.482 769.641 452.15C772.247 445.415 772.275 437.71 771.267 430.453C765.336 387.881 732.692 344.189 693.745 326.48C672.879 316.99 638.853 302.411 649.847 273.41C653.349 264.266 658.253 256.374 659.187 246.819C659.271 245.95 659.355 245.082 659.439 244.157C661.008 221.741 647.96 200.465 626.833 192.787C619.921 190.177 612.531 189.077 605.159 189.56C597.787 190.043 590.604 192.099 584.093 195.589C581.781 196.82 579.712 198.459 577.985 200.427C577.866 200.561 577.76 200.705 577.667 200.857C577.536 201.188 577.43 201.528 577.349 201.875C576.833 204.039 576.757 206.284 577.125 208.478Z" fill="#209390"/>
<path d="M568.451 377.271C557.168 374.665 547.268 366.586 544.438 354.78C541.804 343.843 545.969 332.616 552.423 323.818C558.41 315.692 570.879 308.874 569.898 297.349C569.581 293.613 567.732 290.344 565.322 287.448C564.453 286.439 563.557 285.505 562.576 284.553" stroke="#37517E" stroke-width="4.65" stroke-miterlimit="10"/>
<path d="M591.719 286.607L592.242 324.743" stroke="#37517E" stroke-width="4.65" stroke-miterlimit="10"/>
<path d="M653.922 267.488C657.406 258.335 662.328 250.443 663.262 240.898C663.356 240.02 663.44 239.142 663.505 238.208C665.084 215.792 652.026 194.524 630.909 186.838C623.995 184.23 616.604 183.131 609.231 183.614C601.858 184.097 594.673 186.152 588.159 189.64C585.854 190.875 583.791 192.517 582.07 194.487L581.631 195.019C580.106 196.883 578.997 199.052 578.38 201.38C577.763 203.708 577.652 206.141 578.053 208.516C578.733 211.979 580.371 215.183 582.78 217.762C585.42 220.644 588.488 223.101 591.877 225.048C598.247 228.84 605.326 231.688 610.697 236.807C616.058 241.974 619.257 248.985 619.645 256.421C620.027 264.023 617.3 271.888 615.675 279.023C610.435 302.028 612.107 324.126 615.003 347.271C617.748 369.117 623.586 390.506 634.943 409.522C648.318 431.938 670.267 449.889 694.99 459.089C715.94 466.897 757.017 473.809 771.448 450.954C776.295 443.286 776.613 433.582 775.361 424.597C769.43 382.034 736.768 338.323 697.839 320.624C676.936 311.022 642.91 296.48 653.922 267.488Z" stroke="#37517E" stroke-width="4.65" stroke-miterlimit="10"/>
<path d="M573.718 241.607C571.712 241.607 570.085 239.981 570.085 237.974C570.085 235.967 571.712 234.341 573.718 234.341C575.725 234.341 577.352 235.967 577.352 237.974C577.352 239.981 575.725 241.607 573.718 241.607Z" fill="#37517E"/>
<path d="M574.566 226.262C574.566 226.262 586.867 231.81 582.972 242.597" stroke="#37517E" stroke-width="4.65" stroke-miterlimit="10"/>
<path d="M563.2 284.73C560.118 283.609 556.83 280.06 554.589 277.734C552.11 275.089 549.895 272.207 547.976 269.132C542.572 260.484 539.749 250.473 539.84 240.276C539.931 230.078 542.932 220.119 548.49 211.569C552.338 205.629 557.465 200.361 563.891 197.373C569.248 194.849 575.241 194.003 581.086 194.944C577.82 197.611 574.89 200.666 572.363 204.041C568.555 209.038 565.89 214.808 564.555 220.947C564.349 222.021 564.172 223.086 563.985 224.169C563.051 229.941 562.528 235.788 559.698 240.514C558.254 242.9 556.263 244.908 553.888 246.37C553.33 246.671 552.809 247.038 552.338 247.463C549.769 250.041 556.541 250.779 557.942 251.629C561.538 253.73 560.202 259.764 560.678 263.257C561.253 267.334 562.473 271.294 564.293 274.988C564.938 276.3 565.671 277.567 566.488 278.78C570.224 284.319 575.828 288.652 582.87 288.69C586.004 288.662 589.103 288.027 591.995 286.822C596.957 284.806 601.394 281.685 604.969 277.697" stroke="#37517E" stroke-width="4.65" stroke-miterlimit="10"/>
<path d="M569.967 265.405C569.967 265.405 578.439 270.234 582.109 259.119" stroke="#37517E" stroke-width="4.65" stroke-miterlimit="10"/>
<path d="M447.65 226.495L426.542 216.296C424.612 215.365 422.926 213.996 421.619 212.298L411.766 199.512C410.631 197.96 410.145 196.026 410.411 194.122C410.677 192.218 411.674 190.492 413.191 189.31C414.708 188.128 416.625 187.584 418.537 187.792C420.448 188 422.204 188.944 423.431 190.424L425.234 192.525L421.433 183.531C421.174 182.913 421.052 182.246 421.074 181.577C421.096 180.907 421.263 180.25 421.561 179.65C421.86 179.05 422.284 178.522 422.805 178.1C423.326 177.679 423.931 177.374 424.58 177.208L430.586 178.002L411.812 152.363C409.15 148.73 411.738 144.34 415.632 143.098C420.116 141.669 424.263 144.621 427.046 147.89C438.497 161.377 447.174 176.974 455.234 192.666C457.943 197.94 460.555 203.257 463.07 208.618" stroke="#37517E" stroke-width="4.65" stroke-linejoin="round"/>
<path d="M430.573 178.002C430.573 178.002 442.817 193.235 425.221 192.526" stroke="#37517E" stroke-width="4.65" stroke-miterlimit="10"/>
<path d="M464.663 501.932C464.663 501.932 473.741 516.661 463.169 520.275C452.596 523.89 446.814 506.891 446.814 506.891H467.222" stroke="#37517E" stroke-width="4.65" stroke-miterlimit="10"/>
<path d="M461.411 520.705H503.516" stroke="#37517E" stroke-width="4.65" stroke-miterlimit="10"/>
<path d="M418.912 420.646C418.924 421.684 419.12 422.711 419.491 423.681L423.713 434.674H441.711L435.462 417.694C434.771 415.811 433.439 414.232 431.7 413.233C429.96 412.234 427.925 411.88 425.95 412.232C423.975 412.584 422.188 413.62 420.901 415.159C419.614 416.697 418.91 418.64 418.912 420.646V420.646Z" stroke="#37517E" stroke-width="4.65" stroke-miterlimit="10"/>
<path d="M506.788 434.674L517.062 462.516L501.119 418.964C500.381 416.95 499.042 415.212 497.282 413.986C495.523 412.759 493.429 412.104 491.284 412.108H427.455" stroke="#37517E" stroke-width="4.65" stroke-miterlimit="10"/>
<path d="M451.922 462.516L441.704 434.674" stroke="#37517E" stroke-width="4.65" stroke-miterlimit="10"/>
<path d="M775.6 438.615C803.76 514.428 790.852 589.774 790.852 589.774C748.318 613.441 688.009 611.387 644.812 590.586C629.531 583.208 613.056 572.093 606.387 555.804C601.493 543.877 596.402 532.043 592.209 519.948" stroke="#37517E" stroke-width="4.65" stroke-miterlimit="10"/>
<path d="M799.891 675.16H552.072" stroke="#37517E" stroke-width="4.65" stroke-miterlimit="10"/>
<path d="M581.157 462.545L583.828 471.577" stroke="#37517E" stroke-width="4.65" stroke-miterlimit="10"/>
<path d="M760.417 629.591C760.417 629.591 771.326 610.126 774.875 597.172" stroke="#37517E" stroke-width="4.65" stroke-miterlimit="10"/>
<path d="M706.574 79.5303V273.223H779.352C776.954 265.558 774.946 257.806 773.327 249.967C768.358 225.832 766.883 200.913 767.658 175.742C769.106 127.444 749.398 100.853 723.218 86.7034C717.893 83.8249 712.323 81.4244 706.574 79.5303Z" stroke="#37517E" stroke-width="4.65" stroke-miterlimit="10"/>
<path d="M723.214 86.7031V249.966H773.352C768.383 225.832 766.907 200.913 767.682 175.741C769.102 127.444 749.394 100.872 723.214 86.7031Z" stroke="#37517E" stroke-width="4.65" stroke-miterlimit="10"/>
<path d="M214 175L214 328" stroke="white" stroke-width="10" stroke-miterlimit="10"/>
<path d="M233 203L233 328" stroke="white" stroke-width="10" stroke-miterlimit="10"/>
<path d="M252 138L252 328" stroke="white" stroke-width="10" stroke-miterlimit="10"/>
<path d="M271 232L271 328" stroke="white" stroke-width="10" stroke-miterlimit="10"/>
<path d="M268.832 429.437C268.243 434.517 266.14 439.302 262.796 443.172C259.453 447.042 255.023 449.817 250.082 451.136C245.141 452.456 239.917 452.26 235.089 450.573C230.261 448.886 226.052 445.786 223.008 441.676C219.964 437.567 218.227 432.637 218.021 427.527C217.815 422.417 219.15 417.363 221.853 413.022C224.556 408.68 228.503 405.252 233.179 403.182C237.856 401.112 243.047 400.496 248.078 401.414C248.299 401.457 248.509 401.544 248.695 401.671C248.881 401.798 249.039 401.962 249.16 402.152C249.28 402.343 249.36 402.556 249.395 402.778C249.43 403.001 249.419 403.228 249.362 403.446L248.86 405.405L244.359 422.98C244.287 423.261 244.29 423.555 244.368 423.833C244.446 424.112 244.595 424.365 244.802 424.568C245.009 424.77 245.265 424.915 245.545 424.987C245.826 425.059 246.12 425.056 246.398 424.978L263.871 420.093L266.259 419.426C266.472 419.366 266.695 419.35 266.914 419.378C267.133 419.406 267.345 419.477 267.536 419.589C267.727 419.7 267.893 419.848 268.026 420.025C268.158 420.202 268.254 420.404 268.307 420.619C268.995 423.505 269.172 426.489 268.832 429.437Z" fill="white"/>
<path d="M269.891 411.32C269.973 411.535 270.009 411.764 269.998 411.994C269.987 412.224 269.928 412.449 269.825 412.654C269.722 412.859 269.578 413.04 269.401 413.185C269.225 413.331 269.02 413.437 268.801 413.497L267.171 413.958L253.072 417.939C252.796 418.017 252.505 418.02 252.227 417.948C251.949 417.876 251.695 417.731 251.491 417.529C251.286 417.326 251.137 417.072 251.06 416.793C250.983 416.514 250.98 416.22 251.051 415.939L254.695 401.611L255.044 400.236C255.099 400.018 255.198 399.813 255.335 399.635C255.471 399.457 255.643 399.309 255.839 399.201C256.034 399.093 256.25 399.027 256.472 399.006C256.694 398.986 256.918 399.013 257.13 399.084C259.998 400.085 262.621 401.694 264.822 403.805C267.023 405.916 268.752 408.478 269.891 411.32Z" fill="white"/>
</g>
<defs>
<clipPath id="clip0_810_545">
<rect width="934" height="934" fill="white" transform="matrix(-1 0 0 1 934 0)"/>
</clipPath>
</defs>
</svg>
